<mxfile host="app.diagrams.net" modified="2022-01-15T05:18:04.741Z" agent="5.0 (Macintosh; Intel Mac OS X 10_15_6) AppleWebKit/537.36 (KHTML, like Gecko) Chrome/97.0.4692.71 Safari/537.36" etag="N3MlumVfs_izC21Bt138" version="16.2.6" type="github">
  <diagram id="GI8NbDYhHn43qLTRANlt" name="Page-2">
    <mxGraphModel dx="791" dy="431" grid="1" gridSize="10" guides="1" tooltips="1" connect="1" arrows="1" fold="1" page="1" pageScale="1" pageWidth="1654" pageHeight="1169" math="0" shadow="0">
      <root>
        <mxCell id="tnWjY13QGrS4U4Cpanh3-0" />
        <mxCell id="tnWjY13QGrS4U4Cpanh3-1" parent="tnWjY13QGrS4U4Cpanh3-0" />
        <mxCell id="pVKYjR1IG8FrRiqu0qTl-21" style="edgeStyle=orthogonalEdgeStyle;curved=1;rounded=0;orthogonalLoop=1;jettySize=auto;html=1;fontColor=#000000;startArrow=none;startFill=0;" parent="tnWjY13QGrS4U4Cpanh3-1" source="tnWjY13QGrS4U4Cpanh3-2" edge="1">
          <mxGeometry relative="1" as="geometry">
            <mxPoint x="1290" y="330" as="targetPoint" />
          </mxGeometry>
        </mxCell>
        <mxCell id="tnWjY13QGrS4U4Cpanh3-2" value="&lt;b&gt;Registration Processor&lt;/b&gt;" style="rounded=1;whiteSpace=wrap;html=1;fillColor=#FFFFFF;" parent="tnWjY13QGrS4U4Cpanh3-1" vertex="1">
          <mxGeometry x="360" y="300" width="720" height="60" as="geometry" />
        </mxCell>
        <mxCell id="njnrTh6iUSXitSiZzmFP-0" value="Pre-registration&#xa;data sync service" style="shape=image;verticalLabelPosition=bottom;labelBackgroundColor=#ffffff;verticalAlign=top;aspect=fixed;imageAspect=0;image=data:image/png,iVBORw0KGgoAAAANSUhEUgAAAgAAAAIACAMAAADDpiTIAAAAA3NCSVQICAjb4U/gAAAACXBIWXMAAHYcAAB2HAGnwnjqAAAAGXRFWHRTb2Z0d2FyZQB3d3cuaW5rc2NhcGUub3Jnm+48GgAAArtQTFRF////AAAAAAAAAAAAAAAAAAAAAAAAAAAAAAAAAAAAAAAAAAAAAAAAAAAAAAAAAAAAAAAAAAAAAAAAAAAAAAAAAAAAAAAAAAAAAAAAAAAAAAAAAAAAAAAAAAAAAAAAAAAAAAAAAAAAAAAAAAAAAAAAAAAAAAAAAAAAAAAAAAAAAAAAAAAAAAAAAAAAAAAAAAAAAAAAAAAAAAAAAAAAAAAAAAAAAAAAAAAAAAAAAAAAAAAAAAAAAAAAAAAAAAAAAAAAAAAAAAAAAAAAAAAAAAAAAAAAAAAAAAAAAAAAAAAAAAAAAAAAAAAAAAAAAAAAAAAAAAAAAAAAAAAAAAAAAAAAAAAAAAAAAAAAAAAAAAAAAAAAAAAAAAAAAAAAAAAAAAAAAAAAAAAAAAAAAAAAAAAAAAAAAAAAAAAAAAAAAAAAAAAAAAAAAAAAAAAAAAAAAAAAAAAAAAAAAAAAAAAAAAAAAAAAAAAAAAAAAAAAAAAAAAAAAAAAAAAAAAAAAAAAAAAAAAAAAAAAAAAAAAAAAAAAAAAAAAAAAAAAAAAAAAAAAAAAAAAAAAAAAAAAAAAAAAAAAAAAAAAAAAAAAAAAAAAAAAAAAAAAAAAAAAAAAAAAAAAAAAAAAAAAAAAAAAAAAAAAAAAAAAAAAAAAAAAAAAAAAAAAAAAAAAAAAAAAAAAAAAAAAAAAAAAAAAAAAAAAAAAAAAAAAAAAAAAAAAAAAAAAAAAAAAAAAAAAAAAAAAAAAAAAAAAAAAAAAAAAAAAAAAAAAAAAAAAAAAAAAAAAAAAAAAAAAAAAAAAAAAAAAAAAAAAAAAAAAAAAAAAAAAAAAAAAAAAAAAAAAAAAAAAAAAAAAAAAAAAAAAAAAAAAAAAAAAAAAAAAAAAAAAAAAAAAAAAAAAAAAAAAAAAAAAAAAAAAAAAAAAAAAAAAAAAAbR3Z3AAAAOh0Uk5TAAECAwQFBgcICQoLDA0OEBESExUWFxgZGxwdHh8hIiMkJSYpKissLS4vMTIzNDU2Nzo7PD0+P0BBQ0RFRkdISUpLTE1OT1BRUlNUVVZXWFlaW1xdXl9gYWJjZGVmZ2hpamtsbW5vcXJzdHV2d3h5e3x9fn+AgYKFhoeIiYqLjI+QkZKTlJWXmZqbnJ2en6KjpKWmp6ipq6ytrq+wsbKztLW2t7i5uru8vr/AwcLDxMXGx8jJysvMzc7P0NHS09TV1tfY2drb3N3e3+Dh4uPk5ufo6err7O3u7/Dx8vP09fb3+Pn6+/z9/uASajAAAA40SURBVHja7d35m5VlHcfxMzCM6LC5YDpSEbhQCpqGhKZWtgjaghYKBllGpmWaltmYqZm7GSZtRlEkJpRUQFBGYZuYIJVkkamZC9x/Rj+0KMPMOfe5z/Pc93d5f3/00meY835d8owfL200/F3vSf1rd9z36VNHNziHN/qyJ8J/bscV+/FxeLu9L3w8vHhPXn0gH4mnG3HeH8Pu98wNE/hYvNzwuX8Ie95zt0/io/FwXaf/Ogx+O5dM4eMxf2/6eRj6di09mk/I9L3+x6HF3Xs8n5LZO+b7IeJWn8InZfKmLA2Rt+G0Lj4uazfprl0h/jadOZyPzNJNuO2F0N5tPreHj83KHXj9s6H927ZoHz46C7dv/9Mh7bZfPIaPT/u9uPmkHDuR8tt980k5diLFt+fmk3LsREpv8M0n5diJFN7Qm89L5587j7zkLzEE2Im0XdPN53939+GNRqP3gqjfJ9iJNF3rzSeEsGLaf//svd4f93sFO5GSi9p8Vr+0Zvd7fxPYiYxc1OazYWDJYWc8wE5k4aI2nwdnDVbxzWvYibRf1Oaz+T3DhvjLZ97HTqT5ojafbQtHNHnEa7/DTqT19r0qYvPZfsHIFo95zVd3shMpvKjN5++Xjop41OQ7nmcnUnZRm89TV46LfNzLb3qWnUjRRW0+/7pufBuPPOiap9mJlFzU5vP8LX1tPnb/K59gJ1JwkZvPxIRHj730cXYi6Re/+aRc70fYiURfe5tPyu113iPsRFKv/c0n5brn/padSOJN+VbK5pNyw97xC3YiaRe1+WyaVVGRrlPZiURd3OZz1rAKv+QJK9mJpFwFm0/KHftddiIJV9Hmk3JHfm0XO1Hhq3DzSblDv/QCO1HBq3jzSblX3MxOVOpq2HxS7qBr2YlKXE2bT8rt/xl2otxX4+aTcmM/wU6U9erdfFJu1IV/YifKdVGbzz3TMv+qRn5gCztRjsuz+SS9lZ79O3aiui/f5pNyw965kZ2ozsu7+SS9nb5lLTtRXVdg80m5E1exE9VxhTaflDtueRSBRxftTdbYK7j5pNxRX2cnqvIKbz4pd+hidqKqTsDmk3KvvIWdqJKfrqM2n2vHC/ylH3zdP9mJOjxBm0/KHdD/D3aiTn6qlrX5pNy4y/7KTpR68jaflBt10Z/ZiVJO5uaTciM/yE7U9kVtPvdr+cRGnMNO1NbJ3nyS3mbf9Ut2otiTv/kkvdG+dR07Ucwp2XxS7g0/YCdqdXGbz4IRSr+9477HTtTslG0+KXfUN6J2osc87kQKN5+UO+xOdqLBTunmk3ITb32OnWjgT8pxm88BRr7dvs+zE+32U7LuzSflxl/FTvT/n5D1bz4pN+7yv8XtREcY729j80l66/0oO5GhzSfpzff8rb53orjNZ7rlt995v/e7E9nbfJLegN/9K587kc3NJ+kt+G0/9bcTGd58Uu6kH/raiYxvPin3unv87ERxm8+HRzZ83dS7fexETjaflDv8y/Z3IkebT8pNvM32TuRs80m5vuufMbsTxW0+N/c1fN/4zz5pcidyuvkkvSV/0uBO5HfzSXpT/thjtnYi35tP0tvy+Y/a2YnYfFKuZ/5DNnaiuM3nZIrv+dY8x8BOxObT0Zvz29fr3onYfDq+k+/XuxOx+VRy01fo3InYfCq7ad/UtxNFbT47XG4+KXfEXTtV7URsPpXfq27XsxOx+dRyh3xBx07E5lPfW/XV8neirjPYfOp8s/7UDtk7EZtP7W/XFwveidh8srxhf0joTsTmk+t6zt0sbyeK2nzWs/lU9KZ95iZZOxGbT/a37dM2yNmJ2HyK3CmrZexEbD7F7vh7y+9EbD5F7+ilZXei0ZfHbD6XsPnU+Pa9pNxOxOYj4iZ9scxO1MPmI+Um3JB/J2LzEXUv+9xTWXeiuM1n8UTKZLv9rsi4E7H5SLwxH9+eZyeaweYj9PZZtC3qHwysOLaTL3IHm4/c63lf1E60a3HyPxoa+wCbj+jrPuvBGAJrRye+/S1rPT/wfz4qe12zfhYh4NtpD5/D5qPh3vij1gJOT3ryT9h8dNyMlv96zvqUxx7C5qPmjmn1r+gcnPDQE9l8FN2rv9J0Jzoh4ZHzm/xkcRF/9xd3hz3SBMD8hAcubCbq4XkQkPUT4dym/5GRhVUDgICm/LUAgICe/DUBgICW/LUBgICO/DUCCOHhed1kEJ6/VgAQkJ+/ZgAQkJ6/dgAQkJ0/AwAISM6fBQAE5ObPBAACUvNnAwABmfkrArBmGQR05F+2phYASxpTIaAh/9TGkpoANCCgIX+jRgAQUJC/XgAQEJ+/bgAQEJ6/fgAQEJ0/BwAICM6fBwAExObPBQACQvPnAwABkflzAoCAwPx5AUQTOAcCmfLnBgABYfnzA4CAqPwlAEBAUP4yACAgJn8pABAQkr8cAAiIyF8SAAQE5C8LIJbAZgjUlb80AAgUzl8eAASK5pcAAAIF88sAAIFi+aUAgECh/HIAQKBIfkkAIFAgvywAEMieXxoACGTOLw8ABLLmlwgAAhnzywQAgWz5pQJwTyBXfrkAXBPIl18yALcEcuaXDcAlgbz5pQOIJnB2N/ltAnBFIH9+DQDcECiRXwcAFwTK5NcCwDyBUvn1ADBNoFx+TQDMEiiZXxcAkwTK5tcGwByB0vn1ATBFoHx+jQDMEJCQXycAEwRk5NcKQD0BKfn1AlBNQE5+zQDUEpCUXzcAlQRk5dcOQB0Bafn1A4gl8JAEAvLyWwCghoDE/DYAqCAgM78VAOIJSM1vB4BoAnLzWwIgloDk/LYAiCQgO781AOIISM9vD0A0gbnd5LcJQAwBDfltAhBBQEd+qwCKE9CS3y6AogT05LcMoBgBTfltAyhCQFd+6wCyE9CW3z6ArAT05fcAIBsBjfl9AMhCQGd+LwBqJ6A1vx8AtRLQm98TgNoIaM7vC0AtBHTn9wagcgLa8/sDUCkB/fk9AqiMgIX8PgFUQsBGfq8AOiZgJb9fAB0RsJPfM4BkApby+waQRMBWfu8A2iZgLT8A2iJgLz8A2iFgMD8A2iFgMD8AqiWgLj8AqiSgMD8AqiOgMj8AqiKgND8AqiGgNj8AqiCgOD8AOiegOj8AOiWgPD8AOiOgPj8AOiFgID8A0gmYyA+AVAJG8gMgjYCZ/ACIILB+4He3fqqhbw8ALa9/4HfX3wAAAAAAAAAAAAAAAAAAAAAAAAAAAAAAAAAAAAAAAAAAAAAAAAAAAAAAAAAAAAAAAAAAAAAAAAAAAAAAAAAAAAAAAAAAAAAAAAAAAAAAAAAAAAAAAAAAAAAAAAAAAAAAAAAAAAAAAAAAAAAAAAAAAAAAAAAAAAAAAAAAAAAAAAAAAAAAAAAAAAAAAAAAAAAAAAAAAAAAAAAAAAAAAAAAAAAAAAAAAAAAAAAAAAAAAAAAAAAAAAAAAAAAAAAAAAAAAAAAAAAAAAAAAAAAAAAAAAAAAAAAAAAAAAAAAAAAAAAAAAAAAAAAAAAAAAAAAAAAAAAAAAAAAAAAAAAAAAAAAAAAAAAAAAAAAAAAAAAAAAAAAAAAAAAAAAAAAAAAAAAAAAAAAAAAAAAAAAAAAAAAAAAAAAAAAAAAAAAAAAAAAAAAAAAAAAAAAAAAAAAAAAAAAAAAAAAAAAAAAAAAAAAAAAAAAAAAAAAAAAAAAAAAAAAAAAAAAAAAAAAAAAAAAAAAAAAAAAAAAAAAAAAAAAAAAAAAAAAAAAAAAAAAAFA7gK2zuwCg4bpmb60FQAgb7RCwC6Br9sY9y1UEwBABqwAGzV8hADMEbAIYIn+lAIwQsAhgyPxpAOaFYJiAPQBN8ocwL+GBM0MwTMAagKb5Q5iZ8Mi+EAwTsAWgRf4Q+lKeui4YJmAJQMv8YV3Sc+eEYJeAHQCt84cwJ+nJw5cHuwSsAIjJH5YPT3v4mIhnayVgA0BU/rBxTOrze28MVglYABCXP9zY28HXmL7KKAH9ACLzr5re4deZYZOAdgCx+WdU8LVMEtANIGd+owQ0A8id3yQBvQBK5DdIQCuAUvnNEdAJoGR+YwQ0Aiid3xQBfQAk5DdEQBsAKfnNENAFQFJ+IwQ0AZCW3wQBPQAk5jdAQAsAqfnVE9ABQHJ+5QQ0AJCeXzUB+QA05FdMQDoALfnVEpANQFN+pQQkA9CWXyUBuQA05ldIQCoArfnVEZAJQHN+ZQQkAtCeXxUBeQAs5FdEQBoAK/nVEJAFwFJ+JQQkAbCWXwUBOQAs5ldAQAoAq/nFE5ABwHJ+4QQkALCeXzSB8gA85BdMoDQAL/nFEigLwFN+oQRKAvCWXySBcgA85hdIoBQAr/nFESgDwHN+YQRKAPCeXxSB/ADIL4pAbgDkF0YgLwDyiyOQEwD5BRLIB4D8IgnkAkB+oQTyACC/WAI5AJBfMIH6AZBfNIG6AZBfOIF6AZBfPIE6AZBfAYH6AJBfBYG6AJBfCYF6AJBfDYE6AJBfEYHqAZBfFYGqAZBfGYFqAZBfHYEqAZBfIYHqAJBfJYGqAJBfKYFqAJBfLYEqAJBfMYHOAZBfNYFOAZBfOYHOAJBfPYFOAJDfAIF0AOQ3QSAVAPmNEEgDQH4zBFIAkN8QgfYBkN8UgXYBkN8YgfYAkN8cgXYAkN8ggXgA5DdJIBYA+Y0SiANAfrMEYgCQ3zCB1gDIb5pAKwDkN06gOQDymyfQDAD5HRAYGgD5XRAYCgD5nRAYHAD53RAYDAD5HRHYEwD5XRFYOfCPrCS/LwIpR37XBMjvmgD5XRMgv2sC5HdNgPyuCZDfNQHyuyZAftcEyO+aAPldEyC/awLkd02A/K4JkN81AfK7JkB+1wTI75oA+V0TIL9rAuR3epMXLN6yZfGCyZ4/g38D1s94+saPAR0AAAAASUVORK5CYII=;" parent="tnWjY13QGrS4U4Cpanh3-1" vertex="1">
          <mxGeometry x="170" y="130" width="30" height="30" as="geometry" />
        </mxCell>
        <mxCell id="FZFamsyPZ4Xh7DjJRzZ4-1" style="rounded=0;orthogonalLoop=1;jettySize=auto;html=1;startArrow=none;startFill=0;exitX=0.988;exitY=0.35;exitDx=0;exitDy=0;exitPerimeter=0;" parent="tnWjY13QGrS4U4Cpanh3-1" source="FZFamsyPZ4Xh7DjJRzZ4-0" edge="1">
          <mxGeometry relative="1" as="geometry">
            <mxPoint x="360" y="318" as="targetPoint" />
          </mxGeometry>
        </mxCell>
        <mxCell id="FZFamsyPZ4Xh7DjJRzZ4-0" value="Registration Client" style="sketch=0;pointerEvents=1;shadow=0;dashed=0;html=1;strokeColor=rgb(0, 0, 0);fillColor=rgb(255, 255, 255);labelPosition=center;verticalLabelPosition=bottom;verticalAlign=top;outlineConnect=0;align=center;shape=mxgraph.office.devices.lcd_monitor;fontFamily=Helvetica;fontSize=12;fontColor=rgb(0, 0, 0);" parent="tnWjY13QGrS4U4Cpanh3-1" vertex="1">
          <mxGeometry x="110" y="290" width="80" height="80" as="geometry" />
        </mxCell>
        <mxCell id="FZFamsyPZ4Xh7DjJRzZ4-2" value="Packets" style="text;html=1;strokeColor=none;fillColor=none;align=center;verticalAlign=middle;whiteSpace=wrap;rounded=0;" parent="tnWjY13QGrS4U4Cpanh3-1" vertex="1">
          <mxGeometry x="190" y="290" width="150" height="30" as="geometry" />
        </mxCell>
        <mxCell id="FZFamsyPZ4Xh7DjJRzZ4-4" value="Packet Status" style="text;html=1;strokeColor=none;fillColor=none;align=center;verticalAlign=middle;whiteSpace=wrap;rounded=0;" parent="tnWjY13QGrS4U4Cpanh3-1" vertex="1">
          <mxGeometry x="180" y="340" width="160" height="30" as="geometry" />
        </mxCell>
        <mxCell id="FZFamsyPZ4Xh7DjJRzZ4-5" value="User Pre-registration data" style="text;html=1;strokeColor=none;fillColor=none;align=center;verticalAlign=middle;whiteSpace=wrap;rounded=0;" parent="tnWjY13QGrS4U4Cpanh3-1" vertex="1">
          <mxGeometry x="294" y="210" width="110" height="30" as="geometry" />
        </mxCell>
        <mxCell id="FZFamsyPZ4Xh7DjJRzZ4-6" value="Partner management&#xa;service" style="shape=image;verticalLabelPosition=bottom;labelBackgroundColor=#ffffff;verticalAlign=top;aspect=fixed;imageAspect=0;image=data:image/png,iVBORw0KGgoAAAANSUhEUgAAAgAAAAIACAMAAADDpiTIAAAAA3NCSVQICAjb4U/gAAAACXBIWXMAAHYcAAB2HAGnwnjqAAAAGXRFWHRTb2Z0d2FyZQB3d3cuaW5rc2NhcGUub3Jnm+48GgAAArtQTFRF////AAAAAAAAAAAAAAAAAAAAAAAAAAAAAAAAAAAAAAAAAAAAAAAAAAAAAAAAAAAAAAAAAAAAAAAAAAAAAAAAAAAAAAAAAAAAAAAAAAAAAAAAAAAAAAAAAAAAAAAAAAAAAAAAAAAAAAAAAAAAAAAAAAAAAAAAAAAAAAAAAAAAAAAAAAAAAAAAAAAAAAAAAAAAAAAAAAAAAAAAAAAAAAAAAAAAAAAAAAAAAAAAAAAAAAAAAAAAAAAAAAAAAAAAAAAAAAAAAAAAAAAAAAAAAAAAAAAAAAAAAAAAAAAAAAAAAAAAAAAAAAAAAAAAAAAAAAAAAAAAAAAAAAAAAAAAAAAAAAAAAAAAAAAAAAAAAAAAAAAAAAAAAAAAAAAAAAAAAAAAAAAAAAAAAAAAAAAAAAAAAAAAAAAAAAAAAAAAAAAAAAAAAAAAAAAAAAAAAAAAAAAAAAAAAAAAAAAAAAAAAAAAAAAAAAAAAAAAAAAAAAAAAAAAAAAAAAAAAAAAAAAAAAAAAAAAAAAAAAAAAAAAAAAAAAAAAAAAAAAAAAAAAAAAAAAAAAAAAAAAAAAAAAAAAAAAAAAAAAAAAAAAAAAAAAAAAAAAAAAAAAAAAAAAAAAAAAAAAAAAAAAAAAAAAAAAAAAAAAAAAAAAAAAAAAAAAAAAAAAAAAAAAAAAAAAAAAAAAAAAAAAAAAAAAAAAAAAAAAAAAAAAAAAAAAAAAAAAAAAAAAAAAAAAAAAAAAAAAAAAAAAAAAAAAAAAAAAAAAAAAAAAAAAAAAAAAAAAAAAAAAAAAAAAAAAAAAAAAAAAAAAAAAAAAAAAAAAAAAAAAAAAAAAAAAAAAAAAAAAAAAAAAAAAAAAAAAAAAAAAAAAAAAAAAAAAAAAAAAAAAAAAAAAAAAAAAAAAAAAAAAAAAAAAAAAAAAAAAAAAAAAAAAAAbR3Z3AAAAOh0Uk5TAAECAwQFBgcICQoLDA0OEBESExUWFxgZGxwdHh8hIiMkJSYpKissLS4vMTIzNDU2Nzo7PD0+P0BBQ0RFRkdISUpLTE1OT1BRUlNUVVZXWFlaW1xdXl9gYWJjZGVmZ2hpamtsbW5vcXJzdHV2d3h5e3x9fn+AgYKFhoeIiYqLjI+QkZKTlJWXmZqbnJ2en6KjpKWmp6ipq6ytrq+wsbKztLW2t7i5uru8vr/AwcLDxMXGx8jJysvMzc7P0NHS09TV1tfY2drb3N3e3+Dh4uPk5ufo6err7O3u7/Dx8vP09fb3+Pn6+/z9/uASajAAAA40SURBVHja7d35m5VlHcfxMzCM6LC5YDpSEbhQCpqGhKZWtgjaghYKBllGpmWaltmYqZm7GSZtRlEkJpRUQFBGYZuYIJVkkamZC9x/Rj+0KMPMOfe5z/Pc93d5f3/00meY835d8owfL200/F3vSf1rd9z36VNHNziHN/qyJ8J/bscV+/FxeLu9L3w8vHhPXn0gH4mnG3HeH8Pu98wNE/hYvNzwuX8Ie95zt0/io/FwXaf/Ogx+O5dM4eMxf2/6eRj6di09mk/I9L3+x6HF3Xs8n5LZO+b7IeJWn8InZfKmLA2Rt+G0Lj4uazfprl0h/jadOZyPzNJNuO2F0N5tPreHj83KHXj9s6H927ZoHz46C7dv/9Mh7bZfPIaPT/u9uPmkHDuR8tt980k5diLFt+fmk3LsREpv8M0n5diJFN7Qm89L5587j7zkLzEE2Im0XdPN53939+GNRqP3gqjfJ9iJNF3rzSeEsGLaf//svd4f93sFO5GSi9p8Vr+0Zvd7fxPYiYxc1OazYWDJYWc8wE5k4aI2nwdnDVbxzWvYibRf1Oaz+T3DhvjLZ97HTqT5ojafbQtHNHnEa7/DTqT19r0qYvPZfsHIFo95zVd3shMpvKjN5++Xjop41OQ7nmcnUnZRm89TV46LfNzLb3qWnUjRRW0+/7pufBuPPOiap9mJlFzU5vP8LX1tPnb/K59gJ1JwkZvPxIRHj730cXYi6Re/+aRc70fYiURfe5tPyu113iPsRFKv/c0n5brn/padSOJN+VbK5pNyw97xC3YiaRe1+WyaVVGRrlPZiURd3OZz1rAKv+QJK9mJpFwFm0/KHftddiIJV9Hmk3JHfm0XO1Hhq3DzSblDv/QCO1HBq3jzSblX3MxOVOpq2HxS7qBr2YlKXE2bT8rt/xl2otxX4+aTcmM/wU6U9erdfFJu1IV/YifKdVGbzz3TMv+qRn5gCztRjsuz+SS9lZ79O3aiui/f5pNyw965kZ2ozsu7+SS9nb5lLTtRXVdg80m5E1exE9VxhTaflDtueRSBRxftTdbYK7j5pNxRX2cnqvIKbz4pd+hidqKqTsDmk3KvvIWdqJKfrqM2n2vHC/ylH3zdP9mJOjxBm0/KHdD/D3aiTn6qlrX5pNy4y/7KTpR68jaflBt10Z/ZiVJO5uaTciM/yE7U9kVtPvdr+cRGnMNO1NbJ3nyS3mbf9Ut2otiTv/kkvdG+dR07Ucwp2XxS7g0/YCdqdXGbz4IRSr+9477HTtTslG0+KXfUN6J2osc87kQKN5+UO+xOdqLBTunmk3ITb32OnWjgT8pxm88BRr7dvs+zE+32U7LuzSflxl/FTvT/n5D1bz4pN+7yv8XtREcY729j80l66/0oO5GhzSfpzff8rb53orjNZ7rlt995v/e7E9nbfJLegN/9K587kc3NJ+kt+G0/9bcTGd58Uu6kH/raiYxvPin3unv87ERxm8+HRzZ83dS7fexETjaflDv8y/Z3IkebT8pNvM32TuRs80m5vuufMbsTxW0+N/c1fN/4zz5pcidyuvkkvSV/0uBO5HfzSXpT/thjtnYi35tP0tvy+Y/a2YnYfFKuZ/5DNnaiuM3nZIrv+dY8x8BOxObT0Zvz29fr3onYfDq+k+/XuxOx+VRy01fo3InYfCq7ad/UtxNFbT47XG4+KXfEXTtV7URsPpXfq27XsxOx+dRyh3xBx07E5lPfW/XV8neirjPYfOp8s/7UDtk7EZtP7W/XFwveidh8srxhf0joTsTmk+t6zt0sbyeK2nzWs/lU9KZ95iZZOxGbT/a37dM2yNmJ2HyK3CmrZexEbD7F7vh7y+9EbD5F7+ilZXei0ZfHbD6XsPnU+Pa9pNxOxOYj4iZ9scxO1MPmI+Um3JB/J2LzEXUv+9xTWXeiuM1n8UTKZLv9rsi4E7H5SLwxH9+eZyeaweYj9PZZtC3qHwysOLaTL3IHm4/c63lf1E60a3HyPxoa+wCbj+jrPuvBGAJrRye+/S1rPT/wfz4qe12zfhYh4NtpD5/D5qPh3vij1gJOT3ryT9h8dNyMlv96zvqUxx7C5qPmjmn1r+gcnPDQE9l8FN2rv9J0Jzoh4ZHzm/xkcRF/9xd3hz3SBMD8hAcubCbq4XkQkPUT4dym/5GRhVUDgICm/LUAgICe/DUBgICW/LUBgICO/DUCCOHhed1kEJ6/VgAQkJ+/ZgAQkJ6/dgAQkJ0/AwAISM6fBQAE5ObPBAACUvNnAwABmfkrArBmGQR05F+2phYASxpTIaAh/9TGkpoANCCgIX+jRgAQUJC/XgAQEJ+/bgAQEJ6/fgAQEJ0/BwAICM6fBwAExObPBQACQvPnAwABkflzAoCAwPx5AUQTOAcCmfLnBgABYfnzA4CAqPwlAEBAUP4yACAgJn8pABAQkr8cAAiIyF8SAAQE5C8LIJbAZgjUlb80AAgUzl8eAASK5pcAAAIF88sAAIFi+aUAgECh/HIAQKBIfkkAIFAgvywAEMieXxoACGTOLw8ABLLmlwgAAhnzywQAgWz5pQJwTyBXfrkAXBPIl18yALcEcuaXDcAlgbz5pQOIJnB2N/ltAnBFIH9+DQDcECiRXwcAFwTK5NcCwDyBUvn1ADBNoFx+TQDMEiiZXxcAkwTK5tcGwByB0vn1ATBFoHx+jQDMEJCQXycAEwRk5NcKQD0BKfn1AlBNQE5+zQDUEpCUXzcAlQRk5dcOQB0Bafn1A4gl8JAEAvLyWwCghoDE/DYAqCAgM78VAOIJSM1vB4BoAnLzWwIgloDk/LYAiCQgO781AOIISM9vD0A0gbnd5LcJQAwBDfltAhBBQEd+qwCKE9CS3y6AogT05LcMoBgBTfltAyhCQFd+6wCyE9CW3z6ArAT05fcAIBsBjfl9AMhCQGd+LwBqJ6A1vx8AtRLQm98TgNoIaM7vC0AtBHTn9wagcgLa8/sDUCkB/fk9AqiMgIX8PgFUQsBGfq8AOiZgJb9fAB0RsJPfM4BkApby+waQRMBWfu8A2iZgLT8A2iJgLz8A2iFgMD8A2iFgMD8AqiWgLj8AqiSgMD8AqiOgMj8AqiKgND8AqiGgNj8AqiCgOD8AOiegOj8AOiWgPD8AOiOgPj8AOiFgID8A0gmYyA+AVAJG8gMgjYCZ/ACIILB+4He3fqqhbw8ALa9/4HfX3wAAAAAAAAAAAAAAAAAAAAAAAAAAAAAAAAAAAAAAAAAAAAAAAAAAAAAAAAAAAAAAAAAAAAAAAAAAAAAAAAAAAAAAAAAAAAAAAAAAAAAAAAAAAAAAAAAAAAAAAAAAAAAAAAAAAAAAAAAAAAAAAAAAAAAAAAAAAAAAAAAAAAAAAAAAAAAAAAAAAAAAAAAAAAAAAAAAAAAAAAAAAAAAAAAAAAAAAAAAAAAAAAAAAAAAAAAAAAAAAAAAAAAAAAAAAAAAAAAAAAAAAAAAAAAAAAAAAAAAAAAAAAAAAAAAAAAAAAAAAAAAAAAAAAAAAAAAAAAAAAAAAAAAAAAAAAAAAAAAAAAAAAAAAAAAAAAAAAAAAAAAAAAAAAAAAAAAAAAAAAAAAAAAAAAAAAAAAAAAAAAAAAAAAAAAAAAAAAAAAAAAAAAAAAAAAAAAAAAAAAAAAAAAAAAAAAAAAAAAAAAAAAAAAAAAAAAAAAAAAAAAAAAAAAAAAAAAAAAAAAAAAAAAAAAAAAAAAAAAAAAAAAAAAAAAAAAAAAAAAAAAAAAAAFA7gK2zuwCg4bpmb60FQAgb7RCwC6Br9sY9y1UEwBABqwAGzV8hADMEbAIYIn+lAIwQsAhgyPxpAOaFYJiAPQBN8ocwL+GBM0MwTMAagKb5Q5iZ8Mi+EAwTsAWgRf4Q+lKeui4YJmAJQMv8YV3Sc+eEYJeAHQCt84cwJ+nJw5cHuwSsAIjJH5YPT3v4mIhnayVgA0BU/rBxTOrze28MVglYABCXP9zY28HXmL7KKAH9ACLzr5re4deZYZOAdgCx+WdU8LVMEtANIGd+owQ0A8id3yQBvQBK5DdIQCuAUvnNEdAJoGR+YwQ0Aiid3xQBfQAk5DdEQBsAKfnNENAFQFJ+IwQ0AZCW3wQBPQAk5jdAQAsAqfnVE9ABQHJ+5QQ0AJCeXzUB+QA05FdMQDoALfnVEpANQFN+pQQkA9CWXyUBuQA05ldIQCoArfnVEZAJQHN+ZQQkAtCeXxUBeQAs5FdEQBoAK/nVEJAFwFJ+JQQkAbCWXwUBOQAs5ldAQAoAq/nFE5ABwHJ+4QQkALCeXzSB8gA85BdMoDQAL/nFEigLwFN+oQRKAvCWXySBcgA85hdIoBQAr/nFESgDwHN+YQRKAPCeXxSB/ADIL4pAbgDkF0YgLwDyiyOQEwD5BRLIB4D8IgnkAkB+oQTyACC/WAI5AJBfMIH6AZBfNIG6AZBfOIF6AZBfPIE6AZBfAYH6AJBfBYG6AJBfCYF6AJBfDYE6AJBfEYHqAZBfFYGqAZBfGYFqAZBfHYEqAZBfIYHqAJBfJYGqAJBfKYFqAJBfLYEqAJBfMYHOAZBfNYFOAZBfOYHOAJBfPYFOAJDfAIF0AOQ3QSAVAPmNEEgDQH4zBFIAkN8QgfYBkN8UgXYBkN8YgfYAkN8cgXYAkN8ggXgA5DdJIBYA+Y0SiANAfrMEYgCQ3zCB1gDIb5pAKwDkN06gOQDymyfQDAD5HRAYGgD5XRAYCgD5nRAYHAD53RAYDAD5HRHYEwD5XRFYOfCPrCS/LwIpR37XBMjvmgD5XRMgv2sC5HdNgPyuCZDfNQHyuyZAftcEyO+aAPldEyC/awLkd02A/K4JkN81AfK7JkB+1wTI75oA+V0TIL9rAuR3epMXLN6yZfGCyZ4/g38D1s94+saPAR0AAAAASUVORK5CYII=;" parent="tnWjY13QGrS4U4Cpanh3-1" vertex="1">
          <mxGeometry x="600" y="110" width="30" height="30" as="geometry" />
        </mxCell>
        <mxCell id="FZFamsyPZ4Xh7DjJRzZ4-8" value="Policy details for Data share with ABIS and Manual adjudication system" style="text;html=1;strokeColor=none;fillColor=none;align=center;verticalAlign=middle;whiteSpace=wrap;rounded=0;" parent="tnWjY13QGrS4U4Cpanh3-1" vertex="1">
          <mxGeometry x="621" y="190" width="79" height="90" as="geometry" />
        </mxCell>
        <mxCell id="FZFamsyPZ4Xh7DjJRzZ4-9" value="Master data service" style="shape=image;verticalLabelPosition=bottom;labelBackgroundColor=#ffffff;verticalAlign=top;aspect=fixed;imageAspect=0;image=data:image/png,iVBORw0KGgoAAAANSUhEUgAAAgAAAAIACAMAAADDpiTIAAAAA3NCSVQICAjb4U/gAAAACXBIWXMAAHYcAAB2HAGnwnjqAAAAGXRFWHRTb2Z0d2FyZQB3d3cuaW5rc2NhcGUub3Jnm+48GgAAArtQTFRF////AAAAAAAAAAAAAAAAAAAAAAAAAAAAAAAAAAAAAAAAAAAAAAAAAAAAAAAAAAAAAAAAAAAAAAAAAAAAAAAAAAAAAAAAAAAAAAAAAAAAAAAAAAAAAAAAAAAAAAAAAAAAAAAAAAAAAAAAAAAAAAAAAAAAAAAAAAAAAAAAAAAAAAAAAAAAAAAAAAAAAAAAAAAAAAAAAAAAAAAAAAAAAAAAAAAAAAAAAAAAAAAAAAAAAAAAAAAAAAAAAAAAAAAAAAAAAAAAAAAAAAAAAAAAAAAAAAAAAAAAAAAAAAAAAAAAAAAAAAAAAAAAAAAAAAAAAAAAAAAAAAAAAAAAAAAAAAAAAAAAAAAAAAAAAAAAAAAAAAAAAAAAAAAAAAAAAAAAAAAAAAAAAAAAAAAAAAAAAAAAAAAAAAAAAAAAAAAAAAAAAAAAAAAAAAAAAAAAAAAAAAAAAAAAAAAAAAAAAAAAAAAAAAAAAAAAAAAAAAAAAAAAAAAAAAAAAAAAAAAAAAAAAAAAAAAAAAAAAAAAAAAAAAAAAAAAAAAAAAAAAAAAAAAAAAAAAAAAAAAAAAAAAAAAAAAAAAAAAAAAAAAAAAAAAAAAAAAAAAAAAAAAAAAAAAAAAAAAAAAAAAAAAAAAAAAAAAAAAAAAAAAAAAAAAAAAAAAAAAAAAAAAAAAAAAAAAAAAAAAAAAAAAAAAAAAAAAAAAAAAAAAAAAAAAAAAAAAAAAAAAAAAAAAAAAAAAAAAAAAAAAAAAAAAAAAAAAAAAAAAAAAAAAAAAAAAAAAAAAAAAAAAAAAAAAAAAAAAAAAAAAAAAAAAAAAAAAAAAAAAAAAAAAAAAAAAAAAAAAAAAAAAAAAAAAAAAAAAAAAAAAAAAAAAAAAAAAAAAAAAAAAAAAAAAAAAAAAAAAAAAAAAAAAAAAAAAAAAAAAAAAAAAAAAbR3Z3AAAAOh0Uk5TAAECAwQFBgcICQoLDA0OEBESExUWFxgZGxwdHh8hIiMkJSYpKissLS4vMTIzNDU2Nzo7PD0+P0BBQ0RFRkdISUpLTE1OT1BRUlNUVVZXWFlaW1xdXl9gYWJjZGVmZ2hpamtsbW5vcXJzdHV2d3h5e3x9fn+AgYKFhoeIiYqLjI+QkZKTlJWXmZqbnJ2en6KjpKWmp6ipq6ytrq+wsbKztLW2t7i5uru8vr/AwcLDxMXGx8jJysvMzc7P0NHS09TV1tfY2drb3N3e3+Dh4uPk5ufo6err7O3u7/Dx8vP09fb3+Pn6+/z9/uASajAAAA40SURBVHja7d35m5VlHcfxMzCM6LC5YDpSEbhQCpqGhKZWtgjaghYKBllGpmWaltmYqZm7GSZtRlEkJpRUQFBGYZuYIJVkkamZC9x/Rj+0KMPMOfe5z/Pc93d5f3/00meY835d8owfL200/F3vSf1rd9z36VNHNziHN/qyJ8J/bscV+/FxeLu9L3w8vHhPXn0gH4mnG3HeH8Pu98wNE/hYvNzwuX8Ie95zt0/io/FwXaf/Ogx+O5dM4eMxf2/6eRj6di09mk/I9L3+x6HF3Xs8n5LZO+b7IeJWn8InZfKmLA2Rt+G0Lj4uazfprl0h/jadOZyPzNJNuO2F0N5tPreHj83KHXj9s6H927ZoHz46C7dv/9Mh7bZfPIaPT/u9uPmkHDuR8tt980k5diLFt+fmk3LsREpv8M0n5diJFN7Qm89L5587j7zkLzEE2Im0XdPN53939+GNRqP3gqjfJ9iJNF3rzSeEsGLaf//svd4f93sFO5GSi9p8Vr+0Zvd7fxPYiYxc1OazYWDJYWc8wE5k4aI2nwdnDVbxzWvYibRf1Oaz+T3DhvjLZ97HTqT5ojafbQtHNHnEa7/DTqT19r0qYvPZfsHIFo95zVd3shMpvKjN5++Xjop41OQ7nmcnUnZRm89TV46LfNzLb3qWnUjRRW0+/7pufBuPPOiap9mJlFzU5vP8LX1tPnb/K59gJ1JwkZvPxIRHj730cXYi6Re/+aRc70fYiURfe5tPyu113iPsRFKv/c0n5brn/padSOJN+VbK5pNyw97xC3YiaRe1+WyaVVGRrlPZiURd3OZz1rAKv+QJK9mJpFwFm0/KHftddiIJV9Hmk3JHfm0XO1Hhq3DzSblDv/QCO1HBq3jzSblX3MxOVOpq2HxS7qBr2YlKXE2bT8rt/xl2otxX4+aTcmM/wU6U9erdfFJu1IV/YifKdVGbzz3TMv+qRn5gCztRjsuz+SS9lZ79O3aiui/f5pNyw965kZ2ozsu7+SS9nb5lLTtRXVdg80m5E1exE9VxhTaflDtueRSBRxftTdbYK7j5pNxRX2cnqvIKbz4pd+hidqKqTsDmk3KvvIWdqJKfrqM2n2vHC/ylH3zdP9mJOjxBm0/KHdD/D3aiTn6qlrX5pNy4y/7KTpR68jaflBt10Z/ZiVJO5uaTciM/yE7U9kVtPvdr+cRGnMNO1NbJ3nyS3mbf9Ut2otiTv/kkvdG+dR07Ucwp2XxS7g0/YCdqdXGbz4IRSr+9477HTtTslG0+KXfUN6J2osc87kQKN5+UO+xOdqLBTunmk3ITb32OnWjgT8pxm88BRr7dvs+zE+32U7LuzSflxl/FTvT/n5D1bz4pN+7yv8XtREcY729j80l66/0oO5GhzSfpzff8rb53orjNZ7rlt995v/e7E9nbfJLegN/9K587kc3NJ+kt+G0/9bcTGd58Uu6kH/raiYxvPin3unv87ERxm8+HRzZ83dS7fexETjaflDv8y/Z3IkebT8pNvM32TuRs80m5vuufMbsTxW0+N/c1fN/4zz5pcidyuvkkvSV/0uBO5HfzSXpT/thjtnYi35tP0tvy+Y/a2YnYfFKuZ/5DNnaiuM3nZIrv+dY8x8BOxObT0Zvz29fr3onYfDq+k+/XuxOx+VRy01fo3InYfCq7ad/UtxNFbT47XG4+KXfEXTtV7URsPpXfq27XsxOx+dRyh3xBx07E5lPfW/XV8neirjPYfOp8s/7UDtk7EZtP7W/XFwveidh8srxhf0joTsTmk+t6zt0sbyeK2nzWs/lU9KZ95iZZOxGbT/a37dM2yNmJ2HyK3CmrZexEbD7F7vh7y+9EbD5F7+ilZXei0ZfHbD6XsPnU+Pa9pNxOxOYj4iZ9scxO1MPmI+Um3JB/J2LzEXUv+9xTWXeiuM1n8UTKZLv9rsi4E7H5SLwxH9+eZyeaweYj9PZZtC3qHwysOLaTL3IHm4/c63lf1E60a3HyPxoa+wCbj+jrPuvBGAJrRye+/S1rPT/wfz4qe12zfhYh4NtpD5/D5qPh3vij1gJOT3ryT9h8dNyMlv96zvqUxx7C5qPmjmn1r+gcnPDQE9l8FN2rv9J0Jzoh4ZHzm/xkcRF/9xd3hz3SBMD8hAcubCbq4XkQkPUT4dym/5GRhVUDgICm/LUAgICe/DUBgICW/LUBgICO/DUCCOHhed1kEJ6/VgAQkJ+/ZgAQkJ6/dgAQkJ0/AwAISM6fBQAE5ObPBAACUvNnAwABmfkrArBmGQR05F+2phYASxpTIaAh/9TGkpoANCCgIX+jRgAQUJC/XgAQEJ+/bgAQEJ6/fgAQEJ0/BwAICM6fBwAExObPBQACQvPnAwABkflzAoCAwPx5AUQTOAcCmfLnBgABYfnzA4CAqPwlAEBAUP4yACAgJn8pABAQkr8cAAiIyF8SAAQE5C8LIJbAZgjUlb80AAgUzl8eAASK5pcAAAIF88sAAIFi+aUAgECh/HIAQKBIfkkAIFAgvywAEMieXxoACGTOLw8ABLLmlwgAAhnzywQAgWz5pQJwTyBXfrkAXBPIl18yALcEcuaXDcAlgbz5pQOIJnB2N/ltAnBFIH9+DQDcECiRXwcAFwTK5NcCwDyBUvn1ADBNoFx+TQDMEiiZXxcAkwTK5tcGwByB0vn1ATBFoHx+jQDMEJCQXycAEwRk5NcKQD0BKfn1AlBNQE5+zQDUEpCUXzcAlQRk5dcOQB0Bafn1A4gl8JAEAvLyWwCghoDE/DYAqCAgM78VAOIJSM1vB4BoAnLzWwIgloDk/LYAiCQgO781AOIISM9vD0A0gbnd5LcJQAwBDfltAhBBQEd+qwCKE9CS3y6AogT05LcMoBgBTfltAyhCQFd+6wCyE9CW3z6ArAT05fcAIBsBjfl9AMhCQGd+LwBqJ6A1vx8AtRLQm98TgNoIaM7vC0AtBHTn9wagcgLa8/sDUCkB/fk9AqiMgIX8PgFUQsBGfq8AOiZgJb9fAB0RsJPfM4BkApby+waQRMBWfu8A2iZgLT8A2iJgLz8A2iFgMD8A2iFgMD8AqiWgLj8AqiSgMD8AqiOgMj8AqiKgND8AqiGgNj8AqiCgOD8AOiegOj8AOiWgPD8AOiOgPj8AOiFgID8A0gmYyA+AVAJG8gMgjYCZ/ACIILB+4He3fqqhbw8ALa9/4HfX3wAAAAAAAAAAAAAAAAAAAAAAAAAAAAAAAAAAAAAAAAAAAAAAAAAAAAAAAAAAAAAAAAAAAAAAAAAAAAAAAAAAAAAAAAAAAAAAAAAAAAAAAAAAAAAAAAAAAAAAAAAAAAAAAAAAAAAAAAAAAAAAAAAAAAAAAAAAAAAAAAAAAAAAAAAAAAAAAAAAAAAAAAAAAAAAAAAAAAAAAAAAAAAAAAAAAAAAAAAAAAAAAAAAAAAAAAAAAAAAAAAAAAAAAAAAAAAAAAAAAAAAAAAAAAAAAAAAAAAAAAAAAAAAAAAAAAAAAAAAAAAAAAAAAAAAAAAAAAAAAAAAAAAAAAAAAAAAAAAAAAAAAAAAAAAAAAAAAAAAAAAAAAAAAAAAAAAAAAAAAAAAAAAAAAAAAAAAAAAAAAAAAAAAAAAAAAAAAAAAAAAAAAAAAAAAAAAAAAAAAAAAAAAAAAAAAAAAAAAAAAAAAAAAAAAAAAAAAAAAAAAAAAAAAAAAAAAAAAAAAAAAAAAAAAAAAAAAAAAAAAAAAAAAAAAAAAAAAAAAAAAAAAAAAFA7gK2zuwCg4bpmb60FQAgb7RCwC6Br9sY9y1UEwBABqwAGzV8hADMEbAIYIn+lAIwQsAhgyPxpAOaFYJiAPQBN8ocwL+GBM0MwTMAagKb5Q5iZ8Mi+EAwTsAWgRf4Q+lKeui4YJmAJQMv8YV3Sc+eEYJeAHQCt84cwJ+nJw5cHuwSsAIjJH5YPT3v4mIhnayVgA0BU/rBxTOrze28MVglYABCXP9zY28HXmL7KKAH9ACLzr5re4deZYZOAdgCx+WdU8LVMEtANIGd+owQ0A8id3yQBvQBK5DdIQCuAUvnNEdAJoGR+YwQ0Aiid3xQBfQAk5DdEQBsAKfnNENAFQFJ+IwQ0AZCW3wQBPQAk5jdAQAsAqfnVE9ABQHJ+5QQ0AJCeXzUB+QA05FdMQDoALfnVEpANQFN+pQQkA9CWXyUBuQA05ldIQCoArfnVEZAJQHN+ZQQkAtCeXxUBeQAs5FdEQBoAK/nVEJAFwFJ+JQQkAbCWXwUBOQAs5ldAQAoAq/nFE5ABwHJ+4QQkALCeXzSB8gA85BdMoDQAL/nFEigLwFN+oQRKAvCWXySBcgA85hdIoBQAr/nFESgDwHN+YQRKAPCeXxSB/ADIL4pAbgDkF0YgLwDyiyOQEwD5BRLIB4D8IgnkAkB+oQTyACC/WAI5AJBfMIH6AZBfNIG6AZBfOIF6AZBfPIE6AZBfAYH6AJBfBYG6AJBfCYF6AJBfDYE6AJBfEYHqAZBfFYGqAZBfGYFqAZBfHYEqAZBfIYHqAJBfJYGqAJBfKYFqAJBfLYEqAJBfMYHOAZBfNYFOAZBfOYHOAJBfPYFOAJDfAIF0AOQ3QSAVAPmNEEgDQH4zBFIAkN8QgfYBkN8UgXYBkN8YgfYAkN8cgXYAkN8ggXgA5DdJIBYA+Y0SiANAfrMEYgCQ3zCB1gDIb5pAKwDkN06gOQDymyfQDAD5HRAYGgD5XRAYCgD5nRAYHAD53RAYDAD5HRHYEwD5XRFYOfCPrCS/LwIpR37XBMjvmgD5XRMgv2sC5HdNgPyuCZDfNQHyuyZAftcEyO+aAPldEyC/awLkd02A/K4JkN81AfK7JkB+1wTI75oA+V0TIL9rAuR3epMXLN6yZfGCyZ4/g38D1s94+saPAR0AAAAASUVORK5CYII=;" parent="tnWjY13QGrS4U4Cpanh3-1" vertex="1">
          <mxGeometry x="540" y="480" width="30" height="30" as="geometry" />
        </mxCell>
        <mxCell id="FZFamsyPZ4Xh7DjJRzZ4-11" value="Packet Manager" style="shape=image;verticalLabelPosition=bottom;labelBackgroundColor=#ffffff;verticalAlign=top;aspect=fixed;imageAspect=0;image=data:image/png,iVBORw0KGgoAAAANSUhEUgAAAgAAAAIACAMAAADDpiTIAAAAA3NCSVQICAjb4U/gAAAACXBIWXMAAHYcAAB2HAGnwnjqAAAAGXRFWHRTb2Z0d2FyZQB3d3cuaW5rc2NhcGUub3Jnm+48GgAAArtQTFRF////AAAAAAAAAAAAAAAAAAAAAAAAAAAAAAAAAAAAAAAAAAAAAAAAAAAAAAAAAAAAAAAAAAAAAAAAAAAAAAAAAAAAAAAAAAAAAAAAAAAAAAAAAAAAAAAAAAAAAAAAAAAAAAAAAAAAAAAAAAAAAAAAAAAAAAAAAAAAAAAAAAAAAAAAAAAAAAAAAAAAAAAAAAAAAAAAAAAAAAAAAAAAAAAAAAAAAAAAAAAAAAAAAAAAAAAAAAAAAAAAAAAAAAAAAAAAAAAAAAAAAAAAAAAAAAAAAAAAAAAAAAAAAAAAAAAAAAAAAAAAAAAAAAAAAAAAAAAAAAAAAAAAAAAAAAAAAAAAAAAAAAAAAAAAAAAAAAAAAAAAAAAAAAAAAAAAAAAAAAAAAAAAAAAAAAAAAAAAAAAAAAAAAAAAAAAAAAAAAAAAAAAAAAAAAAAAAAAAAAAAAAAAAAAAAAAAAAAAAAAAAAAAAAAAAAAAAAAAAAAAAAAAAAAAAAAAAAAAAAAAAAAAAAAAAAAAAAAAAAAAAAAAAAAAAAAAAAAAAAAAAAAAAAAAAAAAAAAAAAAAAAAAAAAAAAAAAAAAAAAAAAAAAAAAAAAAAAAAAAAAAAAAAAAAAAAAAAAAAAAAAAAAAAAAAAAAAAAAAAAAAAAAAAAAAAAAAAAAAAAAAAAAAAAAAAAAAAAAAAAAAAAAAAAAAAAAAAAAAAAAAAAAAAAAAAAAAAAAAAAAAAAAAAAAAAAAAAAAAAAAAAAAAAAAAAAAAAAAAAAAAAAAAAAAAAAAAAAAAAAAAAAAAAAAAAAAAAAAAAAAAAAAAAAAAAAAAAAAAAAAAAAAAAAAAAAAAAAAAAAAAAAAAAAAAAAAAAAAAAAAAAAAAAAAAAAAAAAAAAAAAAAAAAAAAAAAAAAAAAAAAAAAAAAAAAAAAAAAAAAAAAAAAAAAbR3Z3AAAAOh0Uk5TAAECAwQFBgcICQoLDA0OEBESExUWFxgZGxwdHh8hIiMkJSYpKissLS4vMTIzNDU2Nzo7PD0+P0BBQ0RFRkdISUpLTE1OT1BRUlNUVVZXWFlaW1xdXl9gYWJjZGVmZ2hpamtsbW5vcXJzdHV2d3h5e3x9fn+AgYKFhoeIiYqLjI+QkZKTlJWXmZqbnJ2en6KjpKWmp6ipq6ytrq+wsbKztLW2t7i5uru8vr/AwcLDxMXGx8jJysvMzc7P0NHS09TV1tfY2drb3N3e3+Dh4uPk5ufo6err7O3u7/Dx8vP09fb3+Pn6+/z9/uASajAAAA40SURBVHja7d35m5VlHcfxMzCM6LC5YDpSEbhQCpqGhKZWtgjaghYKBllGpmWaltmYqZm7GSZtRlEkJpRUQFBGYZuYIJVkkamZC9x/Rj+0KMPMOfe5z/Pc93d5f3/00meY835d8owfL200/F3vSf1rd9z36VNHNziHN/qyJ8J/bscV+/FxeLu9L3w8vHhPXn0gH4mnG3HeH8Pu98wNE/hYvNzwuX8Ie95zt0/io/FwXaf/Ogx+O5dM4eMxf2/6eRj6di09mk/I9L3+x6HF3Xs8n5LZO+b7IeJWn8InZfKmLA2Rt+G0Lj4uazfprl0h/jadOZyPzNJNuO2F0N5tPreHj83KHXj9s6H927ZoHz46C7dv/9Mh7bZfPIaPT/u9uPmkHDuR8tt980k5diLFt+fmk3LsREpv8M0n5diJFN7Qm89L5587j7zkLzEE2Im0XdPN53939+GNRqP3gqjfJ9iJNF3rzSeEsGLaf//svd4f93sFO5GSi9p8Vr+0Zvd7fxPYiYxc1OazYWDJYWc8wE5k4aI2nwdnDVbxzWvYibRf1Oaz+T3DhvjLZ97HTqT5ojafbQtHNHnEa7/DTqT19r0qYvPZfsHIFo95zVd3shMpvKjN5++Xjop41OQ7nmcnUnZRm89TV46LfNzLb3qWnUjRRW0+/7pufBuPPOiap9mJlFzU5vP8LX1tPnb/K59gJ1JwkZvPxIRHj730cXYi6Re/+aRc70fYiURfe5tPyu113iPsRFKv/c0n5brn/padSOJN+VbK5pNyw97xC3YiaRe1+WyaVVGRrlPZiURd3OZz1rAKv+QJK9mJpFwFm0/KHftddiIJV9Hmk3JHfm0XO1Hhq3DzSblDv/QCO1HBq3jzSblX3MxOVOpq2HxS7qBr2YlKXE2bT8rt/xl2otxX4+aTcmM/wU6U9erdfFJu1IV/YifKdVGbzz3TMv+qRn5gCztRjsuz+SS9lZ79O3aiui/f5pNyw965kZ2ozsu7+SS9nb5lLTtRXVdg80m5E1exE9VxhTaflDtueRSBRxftTdbYK7j5pNxRX2cnqvIKbz4pd+hidqKqTsDmk3KvvIWdqJKfrqM2n2vHC/ylH3zdP9mJOjxBm0/KHdD/D3aiTn6qlrX5pNy4y/7KTpR68jaflBt10Z/ZiVJO5uaTciM/yE7U9kVtPvdr+cRGnMNO1NbJ3nyS3mbf9Ut2otiTv/kkvdG+dR07Ucwp2XxS7g0/YCdqdXGbz4IRSr+9477HTtTslG0+KXfUN6J2osc87kQKN5+UO+xOdqLBTunmk3ITb32OnWjgT8pxm88BRr7dvs+zE+32U7LuzSflxl/FTvT/n5D1bz4pN+7yv8XtREcY729j80l66/0oO5GhzSfpzff8rb53orjNZ7rlt995v/e7E9nbfJLegN/9K587kc3NJ+kt+G0/9bcTGd58Uu6kH/raiYxvPin3unv87ERxm8+HRzZ83dS7fexETjaflDv8y/Z3IkebT8pNvM32TuRs80m5vuufMbsTxW0+N/c1fN/4zz5pcidyuvkkvSV/0uBO5HfzSXpT/thjtnYi35tP0tvy+Y/a2YnYfFKuZ/5DNnaiuM3nZIrv+dY8x8BOxObT0Zvz29fr3onYfDq+k+/XuxOx+VRy01fo3InYfCq7ad/UtxNFbT47XG4+KXfEXTtV7URsPpXfq27XsxOx+dRyh3xBx07E5lPfW/XV8neirjPYfOp8s/7UDtk7EZtP7W/XFwveidh8srxhf0joTsTmk+t6zt0sbyeK2nzWs/lU9KZ95iZZOxGbT/a37dM2yNmJ2HyK3CmrZexEbD7F7vh7y+9EbD5F7+ilZXei0ZfHbD6XsPnU+Pa9pNxOxOYj4iZ9scxO1MPmI+Um3JB/J2LzEXUv+9xTWXeiuM1n8UTKZLv9rsi4E7H5SLwxH9+eZyeaweYj9PZZtC3qHwysOLaTL3IHm4/c63lf1E60a3HyPxoa+wCbj+jrPuvBGAJrRye+/S1rPT/wfz4qe12zfhYh4NtpD5/D5qPh3vij1gJOT3ryT9h8dNyMlv96zvqUxx7C5qPmjmn1r+gcnPDQE9l8FN2rv9J0Jzoh4ZHzm/xkcRF/9xd3hz3SBMD8hAcubCbq4XkQkPUT4dym/5GRhVUDgICm/LUAgICe/DUBgICW/LUBgICO/DUCCOHhed1kEJ6/VgAQkJ+/ZgAQkJ6/dgAQkJ0/AwAISM6fBQAE5ObPBAACUvNnAwABmfkrArBmGQR05F+2phYASxpTIaAh/9TGkpoANCCgIX+jRgAQUJC/XgAQEJ+/bgAQEJ6/fgAQEJ0/BwAICM6fBwAExObPBQACQvPnAwABkflzAoCAwPx5AUQTOAcCmfLnBgABYfnzA4CAqPwlAEBAUP4yACAgJn8pABAQkr8cAAiIyF8SAAQE5C8LIJbAZgjUlb80AAgUzl8eAASK5pcAAAIF88sAAIFi+aUAgECh/HIAQKBIfkkAIFAgvywAEMieXxoACGTOLw8ABLLmlwgAAhnzywQAgWz5pQJwTyBXfrkAXBPIl18yALcEcuaXDcAlgbz5pQOIJnB2N/ltAnBFIH9+DQDcECiRXwcAFwTK5NcCwDyBUvn1ADBNoFx+TQDMEiiZXxcAkwTK5tcGwByB0vn1ATBFoHx+jQDMEJCQXycAEwRk5NcKQD0BKfn1AlBNQE5+zQDUEpCUXzcAlQRk5dcOQB0Bafn1A4gl8JAEAvLyWwCghoDE/DYAqCAgM78VAOIJSM1vB4BoAnLzWwIgloDk/LYAiCQgO781AOIISM9vD0A0gbnd5LcJQAwBDfltAhBBQEd+qwCKE9CS3y6AogT05LcMoBgBTfltAyhCQFd+6wCyE9CW3z6ArAT05fcAIBsBjfl9AMhCQGd+LwBqJ6A1vx8AtRLQm98TgNoIaM7vC0AtBHTn9wagcgLa8/sDUCkB/fk9AqiMgIX8PgFUQsBGfq8AOiZgJb9fAB0RsJPfM4BkApby+waQRMBWfu8A2iZgLT8A2iJgLz8A2iFgMD8A2iFgMD8AqiWgLj8AqiSgMD8AqiOgMj8AqiKgND8AqiGgNj8AqiCgOD8AOiegOj8AOiWgPD8AOiOgPj8AOiFgID8A0gmYyA+AVAJG8gMgjYCZ/ACIILB+4He3fqqhbw8ALa9/4HfX3wAAAAAAAAAAAAAAAAAAAAAAAAAAAAAAAAAAAAAAAAAAAAAAAAAAAAAAAAAAAAAAAAAAAAAAAAAAAAAAAAAAAAAAAAAAAAAAAAAAAAAAAAAAAAAAAAAAAAAAAAAAAAAAAAAAAAAAAAAAAAAAAAAAAAAAAAAAAAAAAAAAAAAAAAAAAAAAAAAAAAAAAAAAAAAAAAAAAAAAAAAAAAAAAAAAAAAAAAAAAAAAAAAAAAAAAAAAAAAAAAAAAAAAAAAAAAAAAAAAAAAAAAAAAAAAAAAAAAAAAAAAAAAAAAAAAAAAAAAAAAAAAAAAAAAAAAAAAAAAAAAAAAAAAAAAAAAAAAAAAAAAAAAAAAAAAAAAAAAAAAAAAAAAAAAAAAAAAAAAAAAAAAAAAAAAAAAAAAAAAAAAAAAAAAAAAAAAAAAAAAAAAAAAAAAAAAAAAAAAAAAAAAAAAAAAAAAAAAAAAAAAAAAAAAAAAAAAAAAAAAAAAAAAAAAAAAAAAAAAAAAAAAAAAAAAAAAAAAAAAAAAAAAAAAAAAAAAAAAAAAAAAAAAAFA7gK2zuwCg4bpmb60FQAgb7RCwC6Br9sY9y1UEwBABqwAGzV8hADMEbAIYIn+lAIwQsAhgyPxpAOaFYJiAPQBN8ocwL+GBM0MwTMAagKb5Q5iZ8Mi+EAwTsAWgRf4Q+lKeui4YJmAJQMv8YV3Sc+eEYJeAHQCt84cwJ+nJw5cHuwSsAIjJH5YPT3v4mIhnayVgA0BU/rBxTOrze28MVglYABCXP9zY28HXmL7KKAH9ACLzr5re4deZYZOAdgCx+WdU8LVMEtANIGd+owQ0A8id3yQBvQBK5DdIQCuAUvnNEdAJoGR+YwQ0Aiid3xQBfQAk5DdEQBsAKfnNENAFQFJ+IwQ0AZCW3wQBPQAk5jdAQAsAqfnVE9ABQHJ+5QQ0AJCeXzUB+QA05FdMQDoALfnVEpANQFN+pQQkA9CWXyUBuQA05ldIQCoArfnVEZAJQHN+ZQQkAtCeXxUBeQAs5FdEQBoAK/nVEJAFwFJ+JQQkAbCWXwUBOQAs5ldAQAoAq/nFE5ABwHJ+4QQkALCeXzSB8gA85BdMoDQAL/nFEigLwFN+oQRKAvCWXySBcgA85hdIoBQAr/nFESgDwHN+YQRKAPCeXxSB/ADIL4pAbgDkF0YgLwDyiyOQEwD5BRLIB4D8IgnkAkB+oQTyACC/WAI5AJBfMIH6AZBfNIG6AZBfOIF6AZBfPIE6AZBfAYH6AJBfBYG6AJBfCYF6AJBfDYE6AJBfEYHqAZBfFYGqAZBfGYFqAZBfHYEqAZBfIYHqAJBfJYGqAJBfKYFqAJBfLYEqAJBfMYHOAZBfNYFOAZBfOYHOAJBfPYFOAJDfAIF0AOQ3QSAVAPmNEEgDQH4zBFIAkN8QgfYBkN8UgXYBkN8YgfYAkN8cgXYAkN8ggXgA5DdJIBYA+Y0SiANAfrMEYgCQ3zCB1gDIb5pAKwDkN06gOQDymyfQDAD5HRAYGgD5XRAYCgD5nRAYHAD53RAYDAD5HRHYEwD5XRFYOfCPrCS/LwIpR37XBMjvmgD5XRMgv2sC5HdNgPyuCZDfNQHyuyZAftcEyO+aAPldEyC/awLkd02A/K4JkN81AfK7JkB+1wTI75oA+V0TIL9rAuR3epMXLN6yZfGCyZ4/g38D1s94+saPAR0AAAAASUVORK5CYII=;" parent="tnWjY13QGrS4U4Cpanh3-1" vertex="1">
          <mxGeometry x="250" y="490" width="30" height="30" as="geometry" />
        </mxCell>
        <mxCell id="8kBGaF1ih0h8uPIZNork-0" value="object store" style="sketch=0;outlineConnect=0;fontColor=#232F3E;gradientColor=none;fillColor=#000000;strokeColor=none;dashed=0;verticalLabelPosition=bottom;verticalAlign=top;align=center;html=1;fontSize=12;fontStyle=0;aspect=fixed;pointerEvents=1;shape=mxgraph.aws4.bucket_with_objects;" parent="tnWjY13QGrS4U4Cpanh3-1" vertex="1">
          <mxGeometry x="136.73" y="482.5" width="43.27" height="45" as="geometry" />
        </mxCell>
        <mxCell id="8kBGaF1ih0h8uPIZNork-3" value="Validate and retrieve packet details" style="text;html=1;strokeColor=none;fillColor=none;align=center;verticalAlign=middle;whiteSpace=wrap;rounded=0;" parent="tnWjY13QGrS4U4Cpanh3-1" vertex="1">
          <mxGeometry x="263" y="410" width="130" height="30" as="geometry" />
        </mxCell>
        <mxCell id="8kBGaF1ih0h8uPIZNork-4" value="Validation of Packets source" style="text;html=1;strokeColor=none;fillColor=none;align=center;verticalAlign=middle;whiteSpace=wrap;rounded=0;" parent="tnWjY13QGrS4U4Cpanh3-1" vertex="1">
          <mxGeometry x="550" y="360.51" width="90" height="69.49" as="geometry" />
        </mxCell>
        <mxCell id="8kBGaF1ih0h8uPIZNork-5" value="Antivirus" style="verticalLabelPosition=bottom;sketch=0;html=1;fillColor=#FFFFFF;strokeColor=rgb(0, 0, 0);verticalAlign=top;pointerEvents=1;align=center;shape=mxgraph.cisco_safe.security_icons.antivirus;fontFamily=Helvetica;fontSize=12;fontColor=rgb(0, 0, 0);" parent="tnWjY13QGrS4U4Cpanh3-1" vertex="1">
          <mxGeometry x="410" y="560" width="38" height="38" as="geometry" />
        </mxCell>
        <mxCell id="8kBGaF1ih0h8uPIZNork-8" style="edgeStyle=none;rounded=0;orthogonalLoop=1;jettySize=auto;html=1;entryX=0.5;entryY=0;entryDx=0;entryDy=0;startArrow=none;startFill=0;" parent="tnWjY13QGrS4U4Cpanh3-1" target="8kBGaF1ih0h8uPIZNork-5" edge="1">
          <mxGeometry relative="1" as="geometry">
            <mxPoint x="429" y="530" as="sourcePoint" />
          </mxGeometry>
        </mxCell>
        <mxCell id="8kBGaF1ih0h8uPIZNork-6" value="Virus scanner" style="shape=image;verticalLabelPosition=bottom;labelBackgroundColor=#ffffff;verticalAlign=top;aspect=fixed;imageAspect=0;image=data:image/png,iVBORw0KGgoAAAANSUhEUgAAAgAAAAIACAMAAADDpiTIAAAAA3NCSVQICAjb4U/gAAAACXBIWXMAAHYcAAB2HAGnwnjqAAAAGXRFWHRTb2Z0d2FyZQB3d3cuaW5rc2NhcGUub3Jnm+48GgAAArtQTFRF////AAAAAAAAAAAAAAAAAAAAAAAAAAAAAAAAAAAAAAAAAAAAAAAAAAAAAAAAAAAAAAAAAAAAAAAAAAAAAAAAAAAAAAAAAAAAAAAAAAAAAAAAAAAAAAAAAAAAAAAAAAAAAAAAAAAAAAAAAAAAAAAAAAAAAAAAAAAAAAAAAAAAAAAAAAAAAAAAAAAAAAAAAAAAAAAAAAAAAAAAAAAAAAAAAAAAAAAAAAAAAAAAAAAAAAAAAAAAAAAAAAAAAAAAAAAAAAAAAAAAAAAAAAAAAAAAAAAAAAAAAAAAAAAAAAAAAAAAAAAAAAAAAAAAAAAAAAAAAAAAAAAAAAAAAAAAAAAAAAAAAAAAAAAAAAAAAAAAAAAAAAAAAAAAAAAAAAAAAAAAAAAAAAAAAAAAAAAAAAAAAAAAAAAAAAAAAAAAAAAAAAAAAAAAAAAAAAAAAAAAAAAAAAAAAAAAAAAAAAAAAAAAAAAAAAAAAAAAAAAAAAAAAAAAAAAAAAAAAAAAAAAAAAAAAAAAAAAAAAAAAAAAAAAAAAAAAAAAAAAAAAAAAAAAAAAAAAAAAAAAAAAAAAAAAAAAAAAAAAAAAAAAAAAAAAAAAAAAAAAAAAAAAAAAAAAAAAAAAAAAAAAAAAAAAAAAAAAAAAAAAAAAAAAAAAAAAAAAAAAAAAAAAAAAAAAAAAAAAAAAAAAAAAAAAAAAAAAAAAAAAAAAAAAAAAAAAAAAAAAAAAAAAAAAAAAAAAAAAAAAAAAAAAAAAAAAAAAAAAAAAAAAAAAAAAAAAAAAAAAAAAAAAAAAAAAAAAAAAAAAAAAAAAAAAAAAAAAAAAAAAAAAAAAAAAAAAAAAAAAAAAAAAAAAAAAAAAAAAAAAAAAAAAAAAAAAAAAAAAAAAAAAAAAAAAAAAAAAAAAAAAAAAAAAAAAAAAAAAAAAAAAAAAAAbR3Z3AAAAOh0Uk5TAAECAwQFBgcICQoLDA0OEBESExUWFxgZGxwdHh8hIiMkJSYpKissLS4vMTIzNDU2Nzo7PD0+P0BBQ0RFRkdISUpLTE1OT1BRUlNUVVZXWFlaW1xdXl9gYWJjZGVmZ2hpamtsbW5vcXJzdHV2d3h5e3x9fn+AgYKFhoeIiYqLjI+QkZKTlJWXmZqbnJ2en6KjpKWmp6ipq6ytrq+wsbKztLW2t7i5uru8vr/AwcLDxMXGx8jJysvMzc7P0NHS09TV1tfY2drb3N3e3+Dh4uPk5ufo6err7O3u7/Dx8vP09fb3+Pn6+/z9/uASajAAAA40SURBVHja7d35m5VlHcfxMzCM6LC5YDpSEbhQCpqGhKZWtgjaghYKBllGpmWaltmYqZm7GSZtRlEkJpRUQFBGYZuYIJVkkamZC9x/Rj+0KMPMOfe5z/Pc93d5f3/00meY835d8owfL200/F3vSf1rd9z36VNHNziHN/qyJ8J/bscV+/FxeLu9L3w8vHhPXn0gH4mnG3HeH8Pu98wNE/hYvNzwuX8Ie95zt0/io/FwXaf/Ogx+O5dM4eMxf2/6eRj6di09mk/I9L3+x6HF3Xs8n5LZO+b7IeJWn8InZfKmLA2Rt+G0Lj4uazfprl0h/jadOZyPzNJNuO2F0N5tPreHj83KHXj9s6H927ZoHz46C7dv/9Mh7bZfPIaPT/u9uPmkHDuR8tt980k5diLFt+fmk3LsREpv8M0n5diJFN7Qm89L5587j7zkLzEE2Im0XdPN53939+GNRqP3gqjfJ9iJNF3rzSeEsGLaf//svd4f93sFO5GSi9p8Vr+0Zvd7fxPYiYxc1OazYWDJYWc8wE5k4aI2nwdnDVbxzWvYibRf1Oaz+T3DhvjLZ97HTqT5ojafbQtHNHnEa7/DTqT19r0qYvPZfsHIFo95zVd3shMpvKjN5++Xjop41OQ7nmcnUnZRm89TV46LfNzLb3qWnUjRRW0+/7pufBuPPOiap9mJlFzU5vP8LX1tPnb/K59gJ1JwkZvPxIRHj730cXYi6Re/+aRc70fYiURfe5tPyu113iPsRFKv/c0n5brn/padSOJN+VbK5pNyw97xC3YiaRe1+WyaVVGRrlPZiURd3OZz1rAKv+QJK9mJpFwFm0/KHftddiIJV9Hmk3JHfm0XO1Hhq3DzSblDv/QCO1HBq3jzSblX3MxOVOpq2HxS7qBr2YlKXE2bT8rt/xl2otxX4+aTcmM/wU6U9erdfFJu1IV/YifKdVGbzz3TMv+qRn5gCztRjsuz+SS9lZ79O3aiui/f5pNyw965kZ2ozsu7+SS9nb5lLTtRXVdg80m5E1exE9VxhTaflDtueRSBRxftTdbYK7j5pNxRX2cnqvIKbz4pd+hidqKqTsDmk3KvvIWdqJKfrqM2n2vHC/ylH3zdP9mJOjxBm0/KHdD/D3aiTn6qlrX5pNy4y/7KTpR68jaflBt10Z/ZiVJO5uaTciM/yE7U9kVtPvdr+cRGnMNO1NbJ3nyS3mbf9Ut2otiTv/kkvdG+dR07Ucwp2XxS7g0/YCdqdXGbz4IRSr+9477HTtTslG0+KXfUN6J2osc87kQKN5+UO+xOdqLBTunmk3ITb32OnWjgT8pxm88BRr7dvs+zE+32U7LuzSflxl/FTvT/n5D1bz4pN+7yv8XtREcY729j80l66/0oO5GhzSfpzff8rb53orjNZ7rlt995v/e7E9nbfJLegN/9K587kc3NJ+kt+G0/9bcTGd58Uu6kH/raiYxvPin3unv87ERxm8+HRzZ83dS7fexETjaflDv8y/Z3IkebT8pNvM32TuRs80m5vuufMbsTxW0+N/c1fN/4zz5pcidyuvkkvSV/0uBO5HfzSXpT/thjtnYi35tP0tvy+Y/a2YnYfFKuZ/5DNnaiuM3nZIrv+dY8x8BOxObT0Zvz29fr3onYfDq+k+/XuxOx+VRy01fo3InYfCq7ad/UtxNFbT47XG4+KXfEXTtV7URsPpXfq27XsxOx+dRyh3xBx07E5lPfW/XV8neirjPYfOp8s/7UDtk7EZtP7W/XFwveidh8srxhf0joTsTmk+t6zt0sbyeK2nzWs/lU9KZ95iZZOxGbT/a37dM2yNmJ2HyK3CmrZexEbD7F7vh7y+9EbD5F7+ilZXei0ZfHbD6XsPnU+Pa9pNxOxOYj4iZ9scxO1MPmI+Um3JB/J2LzEXUv+9xTWXeiuM1n8UTKZLv9rsi4E7H5SLwxH9+eZyeaweYj9PZZtC3qHwysOLaTL3IHm4/c63lf1E60a3HyPxoa+wCbj+jrPuvBGAJrRye+/S1rPT/wfz4qe12zfhYh4NtpD5/D5qPh3vij1gJOT3ryT9h8dNyMlv96zvqUxx7C5qPmjmn1r+gcnPDQE9l8FN2rv9J0Jzoh4ZHzm/xkcRF/9xd3hz3SBMD8hAcubCbq4XkQkPUT4dym/5GRhVUDgICm/LUAgICe/DUBgICW/LUBgICO/DUCCOHhed1kEJ6/VgAQkJ+/ZgAQkJ6/dgAQkJ0/AwAISM6fBQAE5ObPBAACUvNnAwABmfkrArBmGQR05F+2phYASxpTIaAh/9TGkpoANCCgIX+jRgAQUJC/XgAQEJ+/bgAQEJ6/fgAQEJ0/BwAICM6fBwAExObPBQACQvPnAwABkflzAoCAwPx5AUQTOAcCmfLnBgABYfnzA4CAqPwlAEBAUP4yACAgJn8pABAQkr8cAAiIyF8SAAQE5C8LIJbAZgjUlb80AAgUzl8eAASK5pcAAAIF88sAAIFi+aUAgECh/HIAQKBIfkkAIFAgvywAEMieXxoACGTOLw8ABLLmlwgAAhnzywQAgWz5pQJwTyBXfrkAXBPIl18yALcEcuaXDcAlgbz5pQOIJnB2N/ltAnBFIH9+DQDcECiRXwcAFwTK5NcCwDyBUvn1ADBNoFx+TQDMEiiZXxcAkwTK5tcGwByB0vn1ATBFoHx+jQDMEJCQXycAEwRk5NcKQD0BKfn1AlBNQE5+zQDUEpCUXzcAlQRk5dcOQB0Bafn1A4gl8JAEAvLyWwCghoDE/DYAqCAgM78VAOIJSM1vB4BoAnLzWwIgloDk/LYAiCQgO781AOIISM9vD0A0gbnd5LcJQAwBDfltAhBBQEd+qwCKE9CS3y6AogT05LcMoBgBTfltAyhCQFd+6wCyE9CW3z6ArAT05fcAIBsBjfl9AMhCQGd+LwBqJ6A1vx8AtRLQm98TgNoIaM7vC0AtBHTn9wagcgLa8/sDUCkB/fk9AqiMgIX8PgFUQsBGfq8AOiZgJb9fAB0RsJPfM4BkApby+waQRMBWfu8A2iZgLT8A2iJgLz8A2iFgMD8A2iFgMD8AqiWgLj8AqiSgMD8AqiOgMj8AqiKgND8AqiGgNj8AqiCgOD8AOiegOj8AOiWgPD8AOiOgPj8AOiFgID8A0gmYyA+AVAJG8gMgjYCZ/ACIILB+4He3fqqhbw8ALa9/4HfX3wAAAAAAAAAAAAAAAAAAAAAAAAAAAAAAAAAAAAAAAAAAAAAAAAAAAAAAAAAAAAAAAAAAAAAAAAAAAAAAAAAAAAAAAAAAAAAAAAAAAAAAAAAAAAAAAAAAAAAAAAAAAAAAAAAAAAAAAAAAAAAAAAAAAAAAAAAAAAAAAAAAAAAAAAAAAAAAAAAAAAAAAAAAAAAAAAAAAAAAAAAAAAAAAAAAAAAAAAAAAAAAAAAAAAAAAAAAAAAAAAAAAAAAAAAAAAAAAAAAAAAAAAAAAAAAAAAAAAAAAAAAAAAAAAAAAAAAAAAAAAAAAAAAAAAAAAAAAAAAAAAAAAAAAAAAAAAAAAAAAAAAAAAAAAAAAAAAAAAAAAAAAAAAAAAAAAAAAAAAAAAAAAAAAAAAAAAAAAAAAAAAAAAAAAAAAAAAAAAAAAAAAAAAAAAAAAAAAAAAAAAAAAAAAAAAAAAAAAAAAAAAAAAAAAAAAAAAAAAAAAAAAAAAAAAAAAAAAAAAAAAAAAAAAAAAAAAAAAAAAAAAAAAAAAAAAAAAAAAAAAAAAAAAAFA7gK2zuwCg4bpmb60FQAgb7RCwC6Br9sY9y1UEwBABqwAGzV8hADMEbAIYIn+lAIwQsAhgyPxpAOaFYJiAPQBN8ocwL+GBM0MwTMAagKb5Q5iZ8Mi+EAwTsAWgRf4Q+lKeui4YJmAJQMv8YV3Sc+eEYJeAHQCt84cwJ+nJw5cHuwSsAIjJH5YPT3v4mIhnayVgA0BU/rBxTOrze28MVglYABCXP9zY28HXmL7KKAH9ACLzr5re4deZYZOAdgCx+WdU8LVMEtANIGd+owQ0A8id3yQBvQBK5DdIQCuAUvnNEdAJoGR+YwQ0Aiid3xQBfQAk5DdEQBsAKfnNENAFQFJ+IwQ0AZCW3wQBPQAk5jdAQAsAqfnVE9ABQHJ+5QQ0AJCeXzUB+QA05FdMQDoALfnVEpANQFN+pQQkA9CWXyUBuQA05ldIQCoArfnVEZAJQHN+ZQQkAtCeXxUBeQAs5FdEQBoAK/nVEJAFwFJ+JQQkAbCWXwUBOQAs5ldAQAoAq/nFE5ABwHJ+4QQkALCeXzSB8gA85BdMoDQAL/nFEigLwFN+oQRKAvCWXySBcgA85hdIoBQAr/nFESgDwHN+YQRKAPCeXxSB/ADIL4pAbgDkF0YgLwDyiyOQEwD5BRLIB4D8IgnkAkB+oQTyACC/WAI5AJBfMIH6AZBfNIG6AZBfOIF6AZBfPIE6AZBfAYH6AJBfBYG6AJBfCYF6AJBfDYE6AJBfEYHqAZBfFYGqAZBfGYFqAZBfHYEqAZBfIYHqAJBfJYGqAJBfKYFqAJBfLYEqAJBfMYHOAZBfNYFOAZBfOYHOAJBfPYFOAJDfAIF0AOQ3QSAVAPmNEEgDQH4zBFIAkN8QgfYBkN8UgXYBkN8YgfYAkN8cgXYAkN8ggXgA5DdJIBYA+Y0SiANAfrMEYgCQ3zCB1gDIb5pAKwDkN06gOQDymyfQDAD5HRAYGgD5XRAYCgD5nRAYHAD53RAYDAD5HRHYEwD5XRFYOfCPrCS/LwIpR37XBMjvmgD5XRMgv2sC5HdNgPyuCZDfNQHyuyZAftcEyO+aAPldEyC/awLkd02A/K4JkN81AfK7JkB+1wTI75oA+V0TIL9rAuR3epMXLN6yZfGCyZ4/g38D1s94+saPAR0AAAAASUVORK5CYII=;" parent="tnWjY13QGrS4U4Cpanh3-1" vertex="1">
          <mxGeometry x="414" y="480" width="30" height="30" as="geometry" />
        </mxCell>
        <mxCell id="8kBGaF1ih0h8uPIZNork-10" value="Packets scan" style="text;html=1;strokeColor=none;fillColor=none;align=center;verticalAlign=middle;whiteSpace=wrap;rounded=0;" parent="tnWjY13QGrS4U4Cpanh3-1" vertex="1">
          <mxGeometry x="426" y="387" width="84" height="33" as="geometry" />
        </mxCell>
        <mxCell id="pVKYjR1IG8FrRiqu0qTl-0" value="&lt;font color=&quot;#000000&quot; style=&quot;font-weight: normal&quot;&gt;Biometric SDK&lt;/font&gt;" style="sketch=0;html=1;fillColor=#4D4D4D;strokeColor=none;verticalAlign=top;labelPosition=center;verticalLabelPosition=bottom;align=center;spacingTop=-6;fontSize=11;fontStyle=1;fontColor=#999999;shape=mxgraph.gcp2.hexIcon;prIcon=placeholder" parent="tnWjY13QGrS4U4Cpanh3-1" vertex="1">
          <mxGeometry x="462" y="101.5" width="66" height="58.5" as="geometry" />
        </mxCell>
        <mxCell id="pVKYjR1IG8FrRiqu0qTl-3" value="Biometrics quality check" style="text;html=1;strokeColor=none;fillColor=none;align=center;verticalAlign=middle;whiteSpace=wrap;rounded=0;" parent="tnWjY13QGrS4U4Cpanh3-1" vertex="1">
          <mxGeometry x="492" y="224" width="78" height="70" as="geometry" />
        </mxCell>
        <mxCell id="pVKYjR1IG8FrRiqu0qTl-4" value="Data share&#xa;service" style="shape=image;verticalLabelPosition=bottom;labelBackgroundColor=#ffffff;verticalAlign=top;aspect=fixed;imageAspect=0;image=data:image/png,iVBORw0KGgoAAAANSUhEUgAAAgAAAAIACAMAAADDpiTIAAAAA3NCSVQICAjb4U/gAAAACXBIWXMAAHYcAAB2HAGnwnjqAAAAGXRFWHRTb2Z0d2FyZQB3d3cuaW5rc2NhcGUub3Jnm+48GgAAArtQTFRF////AAAAAAAAAAAAAAAAAAAAAAAAAAAAAAAAAAAAAAAAAAAAAAAAAAAAAAAAAAAAAAAAAAAAAAAAAAAAAAAAAAAAAAAAAAAAAAAAAAAAAAAAAAAAAAAAAAAAAAAAAAAAAAAAAAAAAAAAAAAAAAAAAAAAAAAAAAAAAAAAAAAAAAAAAAAAAAAAAAAAAAAAAAAAAAAAAAAAAAAAAAAAAAAAAAAAAAAAAAAAAAAAAAAAAAAAAAAAAAAAAAAAAAAAAAAAAAAAAAAAAAAAAAAAAAAAAAAAAAAAAAAAAAAAAAAAAAAAAAAAAAAAAAAAAAAAAAAAAAAAAAAAAAAAAAAAAAAAAAAAAAAAAAAAAAAAAAAAAAAAAAAAAAAAAAAAAAAAAAAAAAAAAAAAAAAAAAAAAAAAAAAAAAAAAAAAAAAAAAAAAAAAAAAAAAAAAAAAAAAAAAAAAAAAAAAAAAAAAAAAAAAAAAAAAAAAAAAAAAAAAAAAAAAAAAAAAAAAAAAAAAAAAAAAAAAAAAAAAAAAAAAAAAAAAAAAAAAAAAAAAAAAAAAAAAAAAAAAAAAAAAAAAAAAAAAAAAAAAAAAAAAAAAAAAAAAAAAAAAAAAAAAAAAAAAAAAAAAAAAAAAAAAAAAAAAAAAAAAAAAAAAAAAAAAAAAAAAAAAAAAAAAAAAAAAAAAAAAAAAAAAAAAAAAAAAAAAAAAAAAAAAAAAAAAAAAAAAAAAAAAAAAAAAAAAAAAAAAAAAAAAAAAAAAAAAAAAAAAAAAAAAAAAAAAAAAAAAAAAAAAAAAAAAAAAAAAAAAAAAAAAAAAAAAAAAAAAAAAAAAAAAAAAAAAAAAAAAAAAAAAAAAAAAAAAAAAAAAAAAAAAAAAAAAAAAAAAAAAAAAAAAAAAAAAAAAAAAAAAAAAAAAAAAAAAAAAAAAAAAAAAAAAAAAbR3Z3AAAAOh0Uk5TAAECAwQFBgcICQoLDA0OEBESExUWFxgZGxwdHh8hIiMkJSYpKissLS4vMTIzNDU2Nzo7PD0+P0BBQ0RFRkdISUpLTE1OT1BRUlNUVVZXWFlaW1xdXl9gYWJjZGVmZ2hpamtsbW5vcXJzdHV2d3h5e3x9fn+AgYKFhoeIiYqLjI+QkZKTlJWXmZqbnJ2en6KjpKWmp6ipq6ytrq+wsbKztLW2t7i5uru8vr/AwcLDxMXGx8jJysvMzc7P0NHS09TV1tfY2drb3N3e3+Dh4uPk5ufo6err7O3u7/Dx8vP09fb3+Pn6+/z9/uASajAAAA40SURBVHja7d35m5VlHcfxMzCM6LC5YDpSEbhQCpqGhKZWtgjaghYKBllGpmWaltmYqZm7GSZtRlEkJpRUQFBGYZuYIJVkkamZC9x/Rj+0KMPMOfe5z/Pc93d5f3/00meY835d8owfL200/F3vSf1rd9z36VNHNziHN/qyJ8J/bscV+/FxeLu9L3w8vHhPXn0gH4mnG3HeH8Pu98wNE/hYvNzwuX8Ie95zt0/io/FwXaf/Ogx+O5dM4eMxf2/6eRj6di09mk/I9L3+x6HF3Xs8n5LZO+b7IeJWn8InZfKmLA2Rt+G0Lj4uazfprl0h/jadOZyPzNJNuO2F0N5tPreHj83KHXj9s6H927ZoHz46C7dv/9Mh7bZfPIaPT/u9uPmkHDuR8tt980k5diLFt+fmk3LsREpv8M0n5diJFN7Qm89L5587j7zkLzEE2Im0XdPN53939+GNRqP3gqjfJ9iJNF3rzSeEsGLaf//svd4f93sFO5GSi9p8Vr+0Zvd7fxPYiYxc1OazYWDJYWc8wE5k4aI2nwdnDVbxzWvYibRf1Oaz+T3DhvjLZ97HTqT5ojafbQtHNHnEa7/DTqT19r0qYvPZfsHIFo95zVd3shMpvKjN5++Xjop41OQ7nmcnUnZRm89TV46LfNzLb3qWnUjRRW0+/7pufBuPPOiap9mJlFzU5vP8LX1tPnb/K59gJ1JwkZvPxIRHj730cXYi6Re/+aRc70fYiURfe5tPyu113iPsRFKv/c0n5brn/padSOJN+VbK5pNyw97xC3YiaRe1+WyaVVGRrlPZiURd3OZz1rAKv+QJK9mJpFwFm0/KHftddiIJV9Hmk3JHfm0XO1Hhq3DzSblDv/QCO1HBq3jzSblX3MxOVOpq2HxS7qBr2YlKXE2bT8rt/xl2otxX4+aTcmM/wU6U9erdfFJu1IV/YifKdVGbzz3TMv+qRn5gCztRjsuz+SS9lZ79O3aiui/f5pNyw965kZ2ozsu7+SS9nb5lLTtRXVdg80m5E1exE9VxhTaflDtueRSBRxftTdbYK7j5pNxRX2cnqvIKbz4pd+hidqKqTsDmk3KvvIWdqJKfrqM2n2vHC/ylH3zdP9mJOjxBm0/KHdD/D3aiTn6qlrX5pNy4y/7KTpR68jaflBt10Z/ZiVJO5uaTciM/yE7U9kVtPvdr+cRGnMNO1NbJ3nyS3mbf9Ut2otiTv/kkvdG+dR07Ucwp2XxS7g0/YCdqdXGbz4IRSr+9477HTtTslG0+KXfUN6J2osc87kQKN5+UO+xOdqLBTunmk3ITb32OnWjgT8pxm88BRr7dvs+zE+32U7LuzSflxl/FTvT/n5D1bz4pN+7yv8XtREcY729j80l66/0oO5GhzSfpzff8rb53orjNZ7rlt995v/e7E9nbfJLegN/9K587kc3NJ+kt+G0/9bcTGd58Uu6kH/raiYxvPin3unv87ERxm8+HRzZ83dS7fexETjaflDv8y/Z3IkebT8pNvM32TuRs80m5vuufMbsTxW0+N/c1fN/4zz5pcidyuvkkvSV/0uBO5HfzSXpT/thjtnYi35tP0tvy+Y/a2YnYfFKuZ/5DNnaiuM3nZIrv+dY8x8BOxObT0Zvz29fr3onYfDq+k+/XuxOx+VRy01fo3InYfCq7ad/UtxNFbT47XG4+KXfEXTtV7URsPpXfq27XsxOx+dRyh3xBx07E5lPfW/XV8neirjPYfOp8s/7UDtk7EZtP7W/XFwveidh8srxhf0joTsTmk+t6zt0sbyeK2nzWs/lU9KZ95iZZOxGbT/a37dM2yNmJ2HyK3CmrZexEbD7F7vh7y+9EbD5F7+ilZXei0ZfHbD6XsPnU+Pa9pNxOxOYj4iZ9scxO1MPmI+Um3JB/J2LzEXUv+9xTWXeiuM1n8UTKZLv9rsi4E7H5SLwxH9+eZyeaweYj9PZZtC3qHwysOLaTL3IHm4/c63lf1E60a3HyPxoa+wCbj+jrPuvBGAJrRye+/S1rPT/wfz4qe12zfhYh4NtpD5/D5qPh3vij1gJOT3ryT9h8dNyMlv96zvqUxx7C5qPmjmn1r+gcnPDQE9l8FN2rv9J0Jzoh4ZHzm/xkcRF/9xd3hz3SBMD8hAcubCbq4XkQkPUT4dym/5GRhVUDgICm/LUAgICe/DUBgICW/LUBgICO/DUCCOHhed1kEJ6/VgAQkJ+/ZgAQkJ6/dgAQkJ0/AwAISM6fBQAE5ObPBAACUvNnAwABmfkrArBmGQR05F+2phYASxpTIaAh/9TGkpoANCCgIX+jRgAQUJC/XgAQEJ+/bgAQEJ6/fgAQEJ0/BwAICM6fBwAExObPBQACQvPnAwABkflzAoCAwPx5AUQTOAcCmfLnBgABYfnzA4CAqPwlAEBAUP4yACAgJn8pABAQkr8cAAiIyF8SAAQE5C8LIJbAZgjUlb80AAgUzl8eAASK5pcAAAIF88sAAIFi+aUAgECh/HIAQKBIfkkAIFAgvywAEMieXxoACGTOLw8ABLLmlwgAAhnzywQAgWz5pQJwTyBXfrkAXBPIl18yALcEcuaXDcAlgbz5pQOIJnB2N/ltAnBFIH9+DQDcECiRXwcAFwTK5NcCwDyBUvn1ADBNoFx+TQDMEiiZXxcAkwTK5tcGwByB0vn1ATBFoHx+jQDMEJCQXycAEwRk5NcKQD0BKfn1AlBNQE5+zQDUEpCUXzcAlQRk5dcOQB0Bafn1A4gl8JAEAvLyWwCghoDE/DYAqCAgM78VAOIJSM1vB4BoAnLzWwIgloDk/LYAiCQgO781AOIISM9vD0A0gbnd5LcJQAwBDfltAhBBQEd+qwCKE9CS3y6AogT05LcMoBgBTfltAyhCQFd+6wCyE9CW3z6ArAT05fcAIBsBjfl9AMhCQGd+LwBqJ6A1vx8AtRLQm98TgNoIaM7vC0AtBHTn9wagcgLa8/sDUCkB/fk9AqiMgIX8PgFUQsBGfq8AOiZgJb9fAB0RsJPfM4BkApby+waQRMBWfu8A2iZgLT8A2iJgLz8A2iFgMD8A2iFgMD8AqiWgLj8AqiSgMD8AqiOgMj8AqiKgND8AqiGgNj8AqiCgOD8AOiegOj8AOiWgPD8AOiOgPj8AOiFgID8A0gmYyA+AVAJG8gMgjYCZ/ACIILB+4He3fqqhbw8ALa9/4HfX3wAAAAAAAAAAAAAAAAAAAAAAAAAAAAAAAAAAAAAAAAAAAAAAAAAAAAAAAAAAAAAAAAAAAAAAAAAAAAAAAAAAAAAAAAAAAAAAAAAAAAAAAAAAAAAAAAAAAAAAAAAAAAAAAAAAAAAAAAAAAAAAAAAAAAAAAAAAAAAAAAAAAAAAAAAAAAAAAAAAAAAAAAAAAAAAAAAAAAAAAAAAAAAAAAAAAAAAAAAAAAAAAAAAAAAAAAAAAAAAAAAAAAAAAAAAAAAAAAAAAAAAAAAAAAAAAAAAAAAAAAAAAAAAAAAAAAAAAAAAAAAAAAAAAAAAAAAAAAAAAAAAAAAAAAAAAAAAAAAAAAAAAAAAAAAAAAAAAAAAAAAAAAAAAAAAAAAAAAAAAAAAAAAAAAAAAAAAAAAAAAAAAAAAAAAAAAAAAAAAAAAAAAAAAAAAAAAAAAAAAAAAAAAAAAAAAAAAAAAAAAAAAAAAAAAAAAAAAAAAAAAAAAAAAAAAAAAAAAAAAAAAAAAAAAAAAAAAAAAAAAAAAAAAAAAAAAAAAAAAAAAAAAAAAFA7gK2zuwCg4bpmb60FQAgb7RCwC6Br9sY9y1UEwBABqwAGzV8hADMEbAIYIn+lAIwQsAhgyPxpAOaFYJiAPQBN8ocwL+GBM0MwTMAagKb5Q5iZ8Mi+EAwTsAWgRf4Q+lKeui4YJmAJQMv8YV3Sc+eEYJeAHQCt84cwJ+nJw5cHuwSsAIjJH5YPT3v4mIhnayVgA0BU/rBxTOrze28MVglYABCXP9zY28HXmL7KKAH9ACLzr5re4deZYZOAdgCx+WdU8LVMEtANIGd+owQ0A8id3yQBvQBK5DdIQCuAUvnNEdAJoGR+YwQ0Aiid3xQBfQAk5DdEQBsAKfnNENAFQFJ+IwQ0AZCW3wQBPQAk5jdAQAsAqfnVE9ABQHJ+5QQ0AJCeXzUB+QA05FdMQDoALfnVEpANQFN+pQQkA9CWXyUBuQA05ldIQCoArfnVEZAJQHN+ZQQkAtCeXxUBeQAs5FdEQBoAK/nVEJAFwFJ+JQQkAbCWXwUBOQAs5ldAQAoAq/nFE5ABwHJ+4QQkALCeXzSB8gA85BdMoDQAL/nFEigLwFN+oQRKAvCWXySBcgA85hdIoBQAr/nFESgDwHN+YQRKAPCeXxSB/ADIL4pAbgDkF0YgLwDyiyOQEwD5BRLIB4D8IgnkAkB+oQTyACC/WAI5AJBfMIH6AZBfNIG6AZBfOIF6AZBfPIE6AZBfAYH6AJBfBYG6AJBfCYF6AJBfDYE6AJBfEYHqAZBfFYGqAZBfGYFqAZBfHYEqAZBfIYHqAJBfJYGqAJBfKYFqAJBfLYEqAJBfMYHOAZBfNYFOAZBfOYHOAJBfPYFOAJDfAIF0AOQ3QSAVAPmNEEgDQH4zBFIAkN8QgfYBkN8UgXYBkN8YgfYAkN8cgXYAkN8ggXgA5DdJIBYA+Y0SiANAfrMEYgCQ3zCB1gDIb5pAKwDkN06gOQDymyfQDAD5HRAYGgD5XRAYCgD5nRAYHAD53RAYDAD5HRHYEwD5XRFYOfCPrCS/LwIpR37XBMjvmgD5XRMgv2sC5HdNgPyuCZDfNQHyuyZAftcEyO+aAPldEyC/awLkd02A/K4JkN81AfK7JkB+1wTI75oA+V0TIL9rAuR3epMXLN6yZfGCyZ4/g38D1s94+saPAR0AAAAASUVORK5CYII=;" parent="tnWjY13QGrS4U4Cpanh3-1" vertex="1">
          <mxGeometry x="730" y="110" width="30" height="30" as="geometry" />
        </mxCell>
        <mxCell id="pVKYjR1IG8FrRiqu0qTl-6" value="&amp;nbsp; &amp;nbsp; URLs to share data with ABIS and/or Manual adjudication system" style="text;html=1;strokeColor=none;fillColor=none;align=center;verticalAlign=middle;whiteSpace=wrap;rounded=0;" parent="tnWjY13QGrS4U4Cpanh3-1" vertex="1">
          <mxGeometry x="736" y="190" width="84" height="80" as="geometry" />
        </mxCell>
        <mxCell id="pVKYjR1IG8FrRiqu0qTl-7" value="Key manager&#xa;service" style="shape=image;verticalLabelPosition=bottom;labelBackgroundColor=#ffffff;verticalAlign=top;aspect=fixed;imageAspect=0;image=data:image/png,iVBORw0KGgoAAAANSUhEUgAAAgAAAAIACAMAAADDpiTIAAAAA3NCSVQICAjb4U/gAAAACXBIWXMAAHYcAAB2HAGnwnjqAAAAGXRFWHRTb2Z0d2FyZQB3d3cuaW5rc2NhcGUub3Jnm+48GgAAArtQTFRF////AAAAAAAAAAAAAAAAAAAAAAAAAAAAAAAAAAAAAAAAAAAAAAAAAAAAAAAAAAAAAAAAAAAAAAAAAAAAAAAAAAAAAAAAAAAAAAAAAAAAAAAAAAAAAAAAAAAAAAAAAAAAAAAAAAAAAAAAAAAAAAAAAAAAAAAAAAAAAAAAAAAAAAAAAAAAAAAAAAAAAAAAAAAAAAAAAAAAAAAAAAAAAAAAAAAAAAAAAAAAAAAAAAAAAAAAAAAAAAAAAAAAAAAAAAAAAAAAAAAAAAAAAAAAAAAAAAAAAAAAAAAAAAAAAAAAAAAAAAAAAAAAAAAAAAAAAAAAAAAAAAAAAAAAAAAAAAAAAAAAAAAAAAAAAAAAAAAAAAAAAAAAAAAAAAAAAAAAAAAAAAAAAAAAAAAAAAAAAAAAAAAAAAAAAAAAAAAAAAAAAAAAAAAAAAAAAAAAAAAAAAAAAAAAAAAAAAAAAAAAAAAAAAAAAAAAAAAAAAAAAAAAAAAAAAAAAAAAAAAAAAAAAAAAAAAAAAAAAAAAAAAAAAAAAAAAAAAAAAAAAAAAAAAAAAAAAAAAAAAAAAAAAAAAAAAAAAAAAAAAAAAAAAAAAAAAAAAAAAAAAAAAAAAAAAAAAAAAAAAAAAAAAAAAAAAAAAAAAAAAAAAAAAAAAAAAAAAAAAAAAAAAAAAAAAAAAAAAAAAAAAAAAAAAAAAAAAAAAAAAAAAAAAAAAAAAAAAAAAAAAAAAAAAAAAAAAAAAAAAAAAAAAAAAAAAAAAAAAAAAAAAAAAAAAAAAAAAAAAAAAAAAAAAAAAAAAAAAAAAAAAAAAAAAAAAAAAAAAAAAAAAAAAAAAAAAAAAAAAAAAAAAAAAAAAAAAAAAAAAAAAAAAAAAAAAAAAAAAAAAAAAAAAAAAAAAAAAAAAAAAAAAAAAAAAAAAAAAAAAAAAAAAAAAbR3Z3AAAAOh0Uk5TAAECAwQFBgcICQoLDA0OEBESExUWFxgZGxwdHh8hIiMkJSYpKissLS4vMTIzNDU2Nzo7PD0+P0BBQ0RFRkdISUpLTE1OT1BRUlNUVVZXWFlaW1xdXl9gYWJjZGVmZ2hpamtsbW5vcXJzdHV2d3h5e3x9fn+AgYKFhoeIiYqLjI+QkZKTlJWXmZqbnJ2en6KjpKWmp6ipq6ytrq+wsbKztLW2t7i5uru8vr/AwcLDxMXGx8jJysvMzc7P0NHS09TV1tfY2drb3N3e3+Dh4uPk5ufo6err7O3u7/Dx8vP09fb3+Pn6+/z9/uASajAAAA40SURBVHja7d35m5VlHcfxMzCM6LC5YDpSEbhQCpqGhKZWtgjaghYKBllGpmWaltmYqZm7GSZtRlEkJpRUQFBGYZuYIJVkkamZC9x/Rj+0KMPMOfe5z/Pc93d5f3/00meY835d8owfL200/F3vSf1rd9z36VNHNziHN/qyJ8J/bscV+/FxeLu9L3w8vHhPXn0gH4mnG3HeH8Pu98wNE/hYvNzwuX8Ie95zt0/io/FwXaf/Ogx+O5dM4eMxf2/6eRj6di09mk/I9L3+x6HF3Xs8n5LZO+b7IeJWn8InZfKmLA2Rt+G0Lj4uazfprl0h/jadOZyPzNJNuO2F0N5tPreHj83KHXj9s6H927ZoHz46C7dv/9Mh7bZfPIaPT/u9uPmkHDuR8tt980k5diLFt+fmk3LsREpv8M0n5diJFN7Qm89L5587j7zkLzEE2Im0XdPN53939+GNRqP3gqjfJ9iJNF3rzSeEsGLaf//svd4f93sFO5GSi9p8Vr+0Zvd7fxPYiYxc1OazYWDJYWc8wE5k4aI2nwdnDVbxzWvYibRf1Oaz+T3DhvjLZ97HTqT5ojafbQtHNHnEa7/DTqT19r0qYvPZfsHIFo95zVd3shMpvKjN5++Xjop41OQ7nmcnUnZRm89TV46LfNzLb3qWnUjRRW0+/7pufBuPPOiap9mJlFzU5vP8LX1tPnb/K59gJ1JwkZvPxIRHj730cXYi6Re/+aRc70fYiURfe5tPyu113iPsRFKv/c0n5brn/padSOJN+VbK5pNyw97xC3YiaRe1+WyaVVGRrlPZiURd3OZz1rAKv+QJK9mJpFwFm0/KHftddiIJV9Hmk3JHfm0XO1Hhq3DzSblDv/QCO1HBq3jzSblX3MxOVOpq2HxS7qBr2YlKXE2bT8rt/xl2otxX4+aTcmM/wU6U9erdfFJu1IV/YifKdVGbzz3TMv+qRn5gCztRjsuz+SS9lZ79O3aiui/f5pNyw965kZ2ozsu7+SS9nb5lLTtRXVdg80m5E1exE9VxhTaflDtueRSBRxftTdbYK7j5pNxRX2cnqvIKbz4pd+hidqKqTsDmk3KvvIWdqJKfrqM2n2vHC/ylH3zdP9mJOjxBm0/KHdD/D3aiTn6qlrX5pNy4y/7KTpR68jaflBt10Z/ZiVJO5uaTciM/yE7U9kVtPvdr+cRGnMNO1NbJ3nyS3mbf9Ut2otiTv/kkvdG+dR07Ucwp2XxS7g0/YCdqdXGbz4IRSr+9477HTtTslG0+KXfUN6J2osc87kQKN5+UO+xOdqLBTunmk3ITb32OnWjgT8pxm88BRr7dvs+zE+32U7LuzSflxl/FTvT/n5D1bz4pN+7yv8XtREcY729j80l66/0oO5GhzSfpzff8rb53orjNZ7rlt995v/e7E9nbfJLegN/9K587kc3NJ+kt+G0/9bcTGd58Uu6kH/raiYxvPin3unv87ERxm8+HRzZ83dS7fexETjaflDv8y/Z3IkebT8pNvM32TuRs80m5vuufMbsTxW0+N/c1fN/4zz5pcidyuvkkvSV/0uBO5HfzSXpT/thjtnYi35tP0tvy+Y/a2YnYfFKuZ/5DNnaiuM3nZIrv+dY8x8BOxObT0Zvz29fr3onYfDq+k+/XuxOx+VRy01fo3InYfCq7ad/UtxNFbT47XG4+KXfEXTtV7URsPpXfq27XsxOx+dRyh3xBx07E5lPfW/XV8neirjPYfOp8s/7UDtk7EZtP7W/XFwveidh8srxhf0joTsTmk+t6zt0sbyeK2nzWs/lU9KZ95iZZOxGbT/a37dM2yNmJ2HyK3CmrZexEbD7F7vh7y+9EbD5F7+ilZXei0ZfHbD6XsPnU+Pa9pNxOxOYj4iZ9scxO1MPmI+Um3JB/J2LzEXUv+9xTWXeiuM1n8UTKZLv9rsi4E7H5SLwxH9+eZyeaweYj9PZZtC3qHwysOLaTL3IHm4/c63lf1E60a3HyPxoa+wCbj+jrPuvBGAJrRye+/S1rPT/wfz4qe12zfhYh4NtpD5/D5qPh3vij1gJOT3ryT9h8dNyMlv96zvqUxx7C5qPmjmn1r+gcnPDQE9l8FN2rv9J0Jzoh4ZHzm/xkcRF/9xd3hz3SBMD8hAcubCbq4XkQkPUT4dym/5GRhVUDgICm/LUAgICe/DUBgICW/LUBgICO/DUCCOHhed1kEJ6/VgAQkJ+/ZgAQkJ6/dgAQkJ0/AwAISM6fBQAE5ObPBAACUvNnAwABmfkrArBmGQR05F+2phYASxpTIaAh/9TGkpoANCCgIX+jRgAQUJC/XgAQEJ+/bgAQEJ6/fgAQEJ0/BwAICM6fBwAExObPBQACQvPnAwABkflzAoCAwPx5AUQTOAcCmfLnBgABYfnzA4CAqPwlAEBAUP4yACAgJn8pABAQkr8cAAiIyF8SAAQE5C8LIJbAZgjUlb80AAgUzl8eAASK5pcAAAIF88sAAIFi+aUAgECh/HIAQKBIfkkAIFAgvywAEMieXxoACGTOLw8ABLLmlwgAAhnzywQAgWz5pQJwTyBXfrkAXBPIl18yALcEcuaXDcAlgbz5pQOIJnB2N/ltAnBFIH9+DQDcECiRXwcAFwTK5NcCwDyBUvn1ADBNoFx+TQDMEiiZXxcAkwTK5tcGwByB0vn1ATBFoHx+jQDMEJCQXycAEwRk5NcKQD0BKfn1AlBNQE5+zQDUEpCUXzcAlQRk5dcOQB0Bafn1A4gl8JAEAvLyWwCghoDE/DYAqCAgM78VAOIJSM1vB4BoAnLzWwIgloDk/LYAiCQgO781AOIISM9vD0A0gbnd5LcJQAwBDfltAhBBQEd+qwCKE9CS3y6AogT05LcMoBgBTfltAyhCQFd+6wCyE9CW3z6ArAT05fcAIBsBjfl9AMhCQGd+LwBqJ6A1vx8AtRLQm98TgNoIaM7vC0AtBHTn9wagcgLa8/sDUCkB/fk9AqiMgIX8PgFUQsBGfq8AOiZgJb9fAB0RsJPfM4BkApby+waQRMBWfu8A2iZgLT8A2iJgLz8A2iFgMD8A2iFgMD8AqiWgLj8AqiSgMD8AqiOgMj8AqiKgND8AqiGgNj8AqiCgOD8AOiegOj8AOiWgPD8AOiOgPj8AOiFgID8A0gmYyA+AVAJG8gMgjYCZ/ACIILB+4He3fqqhbw8ALa9/4HfX3wAAAAAAAAAAAAAAAAAAAAAAAAAAAAAAAAAAAAAAAAAAAAAAAAAAAAAAAAAAAAAAAAAAAAAAAAAAAAAAAAAAAAAAAAAAAAAAAAAAAAAAAAAAAAAAAAAAAAAAAAAAAAAAAAAAAAAAAAAAAAAAAAAAAAAAAAAAAAAAAAAAAAAAAAAAAAAAAAAAAAAAAAAAAAAAAAAAAAAAAAAAAAAAAAAAAAAAAAAAAAAAAAAAAAAAAAAAAAAAAAAAAAAAAAAAAAAAAAAAAAAAAAAAAAAAAAAAAAAAAAAAAAAAAAAAAAAAAAAAAAAAAAAAAAAAAAAAAAAAAAAAAAAAAAAAAAAAAAAAAAAAAAAAAAAAAAAAAAAAAAAAAAAAAAAAAAAAAAAAAAAAAAAAAAAAAAAAAAAAAAAAAAAAAAAAAAAAAAAAAAAAAAAAAAAAAAAAAAAAAAAAAAAAAAAAAAAAAAAAAAAAAAAAAAAAAAAAAAAAAAAAAAAAAAAAAAAAAAAAAAAAAAAAAAAAAAAAAAAAAAAAAAAAAAAAAAAAAAAAAAAAAAAAAFA7gK2zuwCg4bpmb60FQAgb7RCwC6Br9sY9y1UEwBABqwAGzV8hADMEbAIYIn+lAIwQsAhgyPxpAOaFYJiAPQBN8ocwL+GBM0MwTMAagKb5Q5iZ8Mi+EAwTsAWgRf4Q+lKeui4YJmAJQMv8YV3Sc+eEYJeAHQCt84cwJ+nJw5cHuwSsAIjJH5YPT3v4mIhnayVgA0BU/rBxTOrze28MVglYABCXP9zY28HXmL7KKAH9ACLzr5re4deZYZOAdgCx+WdU8LVMEtANIGd+owQ0A8id3yQBvQBK5DdIQCuAUvnNEdAJoGR+YwQ0Aiid3xQBfQAk5DdEQBsAKfnNENAFQFJ+IwQ0AZCW3wQBPQAk5jdAQAsAqfnVE9ABQHJ+5QQ0AJCeXzUB+QA05FdMQDoALfnVEpANQFN+pQQkA9CWXyUBuQA05ldIQCoArfnVEZAJQHN+ZQQkAtCeXxUBeQAs5FdEQBoAK/nVEJAFwFJ+JQQkAbCWXwUBOQAs5ldAQAoAq/nFE5ABwHJ+4QQkALCeXzSB8gA85BdMoDQAL/nFEigLwFN+oQRKAvCWXySBcgA85hdIoBQAr/nFESgDwHN+YQRKAPCeXxSB/ADIL4pAbgDkF0YgLwDyiyOQEwD5BRLIB4D8IgnkAkB+oQTyACC/WAI5AJBfMIH6AZBfNIG6AZBfOIF6AZBfPIE6AZBfAYH6AJBfBYG6AJBfCYF6AJBfDYE6AJBfEYHqAZBfFYGqAZBfGYFqAZBfHYEqAZBfIYHqAJBfJYGqAJBfKYFqAJBfLYEqAJBfMYHOAZBfNYFOAZBfOYHOAJBfPYFOAJDfAIF0AOQ3QSAVAPmNEEgDQH4zBFIAkN8QgfYBkN8UgXYBkN8YgfYAkN8cgXYAkN8ggXgA5DdJIBYA+Y0SiANAfrMEYgCQ3zCB1gDIb5pAKwDkN06gOQDymyfQDAD5HRAYGgD5XRAYCgD5nRAYHAD53RAYDAD5HRHYEwD5XRFYOfCPrCS/LwIpR37XBMjvmgD5XRMgv2sC5HdNgPyuCZDfNQHyuyZAftcEyO+aAPldEyC/awLkd02A/K4JkN81AfK7JkB+1wTI75oA+V0TIL9rAuR3epMXLN6yZfGCyZ4/g38D1s94+saPAR0AAAAASUVORK5CYII=;" parent="tnWjY13QGrS4U4Cpanh3-1" vertex="1">
          <mxGeometry x="668" y="480" width="30" height="30" as="geometry" />
        </mxCell>
        <mxCell id="pVKYjR1IG8FrRiqu0qTl-9" value="Encryption" style="text;html=1;strokeColor=none;fillColor=none;align=center;verticalAlign=middle;whiteSpace=wrap;rounded=0;" parent="tnWjY13QGrS4U4Cpanh3-1" vertex="1">
          <mxGeometry x="688" y="370" width="62" height="70" as="geometry" />
        </mxCell>
        <mxCell id="pVKYjR1IG8FrRiqu0qTl-10" value="ABIS" style="shape=image;verticalLabelPosition=bottom;labelBackgroundColor=#ffffff;verticalAlign=top;aspect=fixed;imageAspect=0;image=data:image/png,iVBORw0KGgoAAAANSUhEUgAAAgAAAAIACAMAAADDpiTIAAAAA3NCSVQICAjb4U/gAAAACXBIWXMAAHYcAAB2HAGnwnjqAAAAGXRFWHRTb2Z0d2FyZQB3d3cuaW5rc2NhcGUub3Jnm+48GgAAArtQTFRF////AAAAAAAAAAAAAAAAAAAAAAAAAAAAAAAAAAAAAAAAAAAAAAAAAAAAAAAAAAAAAAAAAAAAAAAAAAAAAAAAAAAAAAAAAAAAAAAAAAAAAAAAAAAAAAAAAAAAAAAAAAAAAAAAAAAAAAAAAAAAAAAAAAAAAAAAAAAAAAAAAAAAAAAAAAAAAAAAAAAAAAAAAAAAAAAAAAAAAAAAAAAAAAAAAAAAAAAAAAAAAAAAAAAAAAAAAAAAAAAAAAAAAAAAAAAAAAAAAAAAAAAAAAAAAAAAAAAAAAAAAAAAAAAAAAAAAAAAAAAAAAAAAAAAAAAAAAAAAAAAAAAAAAAAAAAAAAAAAAAAAAAAAAAAAAAAAAAAAAAAAAAAAAAAAAAAAAAAAAAAAAAAAAAAAAAAAAAAAAAAAAAAAAAAAAAAAAAAAAAAAAAAAAAAAAAAAAAAAAAAAAAAAAAAAAAAAAAAAAAAAAAAAAAAAAAAAAAAAAAAAAAAAAAAAAAAAAAAAAAAAAAAAAAAAAAAAAAAAAAAAAAAAAAAAAAAAAAAAAAAAAAAAAAAAAAAAAAAAAAAAAAAAAAAAAAAAAAAAAAAAAAAAAAAAAAAAAAAAAAAAAAAAAAAAAAAAAAAAAAAAAAAAAAAAAAAAAAAAAAAAAAAAAAAAAAAAAAAAAAAAAAAAAAAAAAAAAAAAAAAAAAAAAAAAAAAAAAAAAAAAAAAAAAAAAAAAAAAAAAAAAAAAAAAAAAAAAAAAAAAAAAAAAAAAAAAAAAAAAAAAAAAAAAAAAAAAAAAAAAAAAAAAAAAAAAAAAAAAAAAAAAAAAAAAAAAAAAAAAAAAAAAAAAAAAAAAAAAAAAAAAAAAAAAAAAAAAAAAAAAAAAAAAAAAAAAAAAAAAAAAAAAAAAAAAAAAAAAAAAAAAAAAAAAAAAAAAAAAAAAAAAAAAAAbR3Z3AAAAOh0Uk5TAAECAwQFBgcICQoLDA0OEBESExUWFxgZGxwdHh8hIiMkJSYpKissLS4vMTIzNDU2Nzo7PD0+P0BBQ0RFRkdISUpLTE1OT1BRUlNUVVZXWFlaW1xdXl9gYWJjZGVmZ2hpamtsbW5vcXJzdHV2d3h5e3x9fn+AgYKFhoeIiYqLjI+QkZKTlJWXmZqbnJ2en6KjpKWmp6ipq6ytrq+wsbKztLW2t7i5uru8vr/AwcLDxMXGx8jJysvMzc7P0NHS09TV1tfY2drb3N3e3+Dh4uPk5ufo6err7O3u7/Dx8vP09fb3+Pn6+/z9/uASajAAAA40SURBVHja7d35m5VlHcfxMzCM6LC5YDpSEbhQCpqGhKZWtgjaghYKBllGpmWaltmYqZm7GSZtRlEkJpRUQFBGYZuYIJVkkamZC9x/Rj+0KMPMOfe5z/Pc93d5f3/00meY835d8owfL200/F3vSf1rd9z36VNHNziHN/qyJ8J/bscV+/FxeLu9L3w8vHhPXn0gH4mnG3HeH8Pu98wNE/hYvNzwuX8Ie95zt0/io/FwXaf/Ogx+O5dM4eMxf2/6eRj6di09mk/I9L3+x6HF3Xs8n5LZO+b7IeJWn8InZfKmLA2Rt+G0Lj4uazfprl0h/jadOZyPzNJNuO2F0N5tPreHj83KHXj9s6H927ZoHz46C7dv/9Mh7bZfPIaPT/u9uPmkHDuR8tt980k5diLFt+fmk3LsREpv8M0n5diJFN7Qm89L5587j7zkLzEE2Im0XdPN53939+GNRqP3gqjfJ9iJNF3rzSeEsGLaf//svd4f93sFO5GSi9p8Vr+0Zvd7fxPYiYxc1OazYWDJYWc8wE5k4aI2nwdnDVbxzWvYibRf1Oaz+T3DhvjLZ97HTqT5ojafbQtHNHnEa7/DTqT19r0qYvPZfsHIFo95zVd3shMpvKjN5++Xjop41OQ7nmcnUnZRm89TV46LfNzLb3qWnUjRRW0+/7pufBuPPOiap9mJlFzU5vP8LX1tPnb/K59gJ1JwkZvPxIRHj730cXYi6Re/+aRc70fYiURfe5tPyu113iPsRFKv/c0n5brn/padSOJN+VbK5pNyw97xC3YiaRe1+WyaVVGRrlPZiURd3OZz1rAKv+QJK9mJpFwFm0/KHftddiIJV9Hmk3JHfm0XO1Hhq3DzSblDv/QCO1HBq3jzSblX3MxOVOpq2HxS7qBr2YlKXE2bT8rt/xl2otxX4+aTcmM/wU6U9erdfFJu1IV/YifKdVGbzz3TMv+qRn5gCztRjsuz+SS9lZ79O3aiui/f5pNyw965kZ2ozsu7+SS9nb5lLTtRXVdg80m5E1exE9VxhTaflDtueRSBRxftTdbYK7j5pNxRX2cnqvIKbz4pd+hidqKqTsDmk3KvvIWdqJKfrqM2n2vHC/ylH3zdP9mJOjxBm0/KHdD/D3aiTn6qlrX5pNy4y/7KTpR68jaflBt10Z/ZiVJO5uaTciM/yE7U9kVtPvdr+cRGnMNO1NbJ3nyS3mbf9Ut2otiTv/kkvdG+dR07Ucwp2XxS7g0/YCdqdXGbz4IRSr+9477HTtTslG0+KXfUN6J2osc87kQKN5+UO+xOdqLBTunmk3ITb32OnWjgT8pxm88BRr7dvs+zE+32U7LuzSflxl/FTvT/n5D1bz4pN+7yv8XtREcY729j80l66/0oO5GhzSfpzff8rb53orjNZ7rlt995v/e7E9nbfJLegN/9K587kc3NJ+kt+G0/9bcTGd58Uu6kH/raiYxvPin3unv87ERxm8+HRzZ83dS7fexETjaflDv8y/Z3IkebT8pNvM32TuRs80m5vuufMbsTxW0+N/c1fN/4zz5pcidyuvkkvSV/0uBO5HfzSXpT/thjtnYi35tP0tvy+Y/a2YnYfFKuZ/5DNnaiuM3nZIrv+dY8x8BOxObT0Zvz29fr3onYfDq+k+/XuxOx+VRy01fo3InYfCq7ad/UtxNFbT47XG4+KXfEXTtV7URsPpXfq27XsxOx+dRyh3xBx07E5lPfW/XV8neirjPYfOp8s/7UDtk7EZtP7W/XFwveidh8srxhf0joTsTmk+t6zt0sbyeK2nzWs/lU9KZ95iZZOxGbT/a37dM2yNmJ2HyK3CmrZexEbD7F7vh7y+9EbD5F7+ilZXei0ZfHbD6XsPnU+Pa9pNxOxOYj4iZ9scxO1MPmI+Um3JB/J2LzEXUv+9xTWXeiuM1n8UTKZLv9rsi4E7H5SLwxH9+eZyeaweYj9PZZtC3qHwysOLaTL3IHm4/c63lf1E60a3HyPxoa+wCbj+jrPuvBGAJrRye+/S1rPT/wfz4qe12zfhYh4NtpD5/D5qPh3vij1gJOT3ryT9h8dNyMlv96zvqUxx7C5qPmjmn1r+gcnPDQE9l8FN2rv9J0Jzoh4ZHzm/xkcRF/9xd3hz3SBMD8hAcubCbq4XkQkPUT4dym/5GRhVUDgICm/LUAgICe/DUBgICW/LUBgICO/DUCCOHhed1kEJ6/VgAQkJ+/ZgAQkJ6/dgAQkJ0/AwAISM6fBQAE5ObPBAACUvNnAwABmfkrArBmGQR05F+2phYASxpTIaAh/9TGkpoANCCgIX+jRgAQUJC/XgAQEJ+/bgAQEJ6/fgAQEJ0/BwAICM6fBwAExObPBQACQvPnAwABkflzAoCAwPx5AUQTOAcCmfLnBgABYfnzA4CAqPwlAEBAUP4yACAgJn8pABAQkr8cAAiIyF8SAAQE5C8LIJbAZgjUlb80AAgUzl8eAASK5pcAAAIF88sAAIFi+aUAgECh/HIAQKBIfkkAIFAgvywAEMieXxoACGTOLw8ABLLmlwgAAhnzywQAgWz5pQJwTyBXfrkAXBPIl18yALcEcuaXDcAlgbz5pQOIJnB2N/ltAnBFIH9+DQDcECiRXwcAFwTK5NcCwDyBUvn1ADBNoFx+TQDMEiiZXxcAkwTK5tcGwByB0vn1ATBFoHx+jQDMEJCQXycAEwRk5NcKQD0BKfn1AlBNQE5+zQDUEpCUXzcAlQRk5dcOQB0Bafn1A4gl8JAEAvLyWwCghoDE/DYAqCAgM78VAOIJSM1vB4BoAnLzWwIgloDk/LYAiCQgO781AOIISM9vD0A0gbnd5LcJQAwBDfltAhBBQEd+qwCKE9CS3y6AogT05LcMoBgBTfltAyhCQFd+6wCyE9CW3z6ArAT05fcAIBsBjfl9AMhCQGd+LwBqJ6A1vx8AtRLQm98TgNoIaM7vC0AtBHTn9wagcgLa8/sDUCkB/fk9AqiMgIX8PgFUQsBGfq8AOiZgJb9fAB0RsJPfM4BkApby+waQRMBWfu8A2iZgLT8A2iJgLz8A2iFgMD8A2iFgMD8AqiWgLj8AqiSgMD8AqiOgMj8AqiKgND8AqiGgNj8AqiCgOD8AOiegOj8AOiWgPD8AOiOgPj8AOiFgID8A0gmYyA+AVAJG8gMgjYCZ/ACIILB+4He3fqqhbw8ALa9/4HfX3wAAAAAAAAAAAAAAAAAAAAAAAAAAAAAAAAAAAAAAAAAAAAAAAAAAAAAAAAAAAAAAAAAAAAAAAAAAAAAAAAAAAAAAAAAAAAAAAAAAAAAAAAAAAAAAAAAAAAAAAAAAAAAAAAAAAAAAAAAAAAAAAAAAAAAAAAAAAAAAAAAAAAAAAAAAAAAAAAAAAAAAAAAAAAAAAAAAAAAAAAAAAAAAAAAAAAAAAAAAAAAAAAAAAAAAAAAAAAAAAAAAAAAAAAAAAAAAAAAAAAAAAAAAAAAAAAAAAAAAAAAAAAAAAAAAAAAAAAAAAAAAAAAAAAAAAAAAAAAAAAAAAAAAAAAAAAAAAAAAAAAAAAAAAAAAAAAAAAAAAAAAAAAAAAAAAAAAAAAAAAAAAAAAAAAAAAAAAAAAAAAAAAAAAAAAAAAAAAAAAAAAAAAAAAAAAAAAAAAAAAAAAAAAAAAAAAAAAAAAAAAAAAAAAAAAAAAAAAAAAAAAAAAAAAAAAAAAAAAAAAAAAAAAAAAAAAAAAAAAAAAAAAAAAAAAAAAAAAAAAAAAAAAAAFA7gK2zuwCg4bpmb60FQAgb7RCwC6Br9sY9y1UEwBABqwAGzV8hADMEbAIYIn+lAIwQsAhgyPxpAOaFYJiAPQBN8ocwL+GBM0MwTMAagKb5Q5iZ8Mi+EAwTsAWgRf4Q+lKeui4YJmAJQMv8YV3Sc+eEYJeAHQCt84cwJ+nJw5cHuwSsAIjJH5YPT3v4mIhnayVgA0BU/rBxTOrze28MVglYABCXP9zY28HXmL7KKAH9ACLzr5re4deZYZOAdgCx+WdU8LVMEtANIGd+owQ0A8id3yQBvQBK5DdIQCuAUvnNEdAJoGR+YwQ0Aiid3xQBfQAk5DdEQBsAKfnNENAFQFJ+IwQ0AZCW3wQBPQAk5jdAQAsAqfnVE9ABQHJ+5QQ0AJCeXzUB+QA05FdMQDoALfnVEpANQFN+pQQkA9CWXyUBuQA05ldIQCoArfnVEZAJQHN+ZQQkAtCeXxUBeQAs5FdEQBoAK/nVEJAFwFJ+JQQkAbCWXwUBOQAs5ldAQAoAq/nFE5ABwHJ+4QQkALCeXzSB8gA85BdMoDQAL/nFEigLwFN+oQRKAvCWXySBcgA85hdIoBQAr/nFESgDwHN+YQRKAPCeXxSB/ADIL4pAbgDkF0YgLwDyiyOQEwD5BRLIB4D8IgnkAkB+oQTyACC/WAI5AJBfMIH6AZBfNIG6AZBfOIF6AZBfPIE6AZBfAYH6AJBfBYG6AJBfCYF6AJBfDYE6AJBfEYHqAZBfFYGqAZBfGYFqAZBfHYEqAZBfIYHqAJBfJYGqAJBfKYFqAJBfLYEqAJBfMYHOAZBfNYFOAZBfOYHOAJBfPYFOAJDfAIF0AOQ3QSAVAPmNEEgDQH4zBFIAkN8QgfYBkN8UgXYBkN8YgfYAkN8cgXYAkN8ggXgA5DdJIBYA+Y0SiANAfrMEYgCQ3zCB1gDIb5pAKwDkN06gOQDymyfQDAD5HRAYGgD5XRAYCgD5nRAYHAD53RAYDAD5HRHYEwD5XRFYOfCPrCS/LwIpR37XBMjvmgD5XRMgv2sC5HdNgPyuCZDfNQHyuyZAftcEyO+aAPldEyC/awLkd02A/K4JkN81AfK7JkB+1wTI75oA+V0TIL9rAuR3epMXLN6yZfGCyZ4/g38D1s94+saPAR0AAAAASUVORK5CYII=;" parent="tnWjY13QGrS4U4Cpanh3-1" vertex="1">
          <mxGeometry x="860" y="110" width="30" height="30" as="geometry" />
        </mxCell>
        <mxCell id="pVKYjR1IG8FrRiqu0qTl-11" value="Manual adjudication&#xa;system" style="shape=image;verticalLabelPosition=bottom;labelBackgroundColor=#ffffff;verticalAlign=top;aspect=fixed;imageAspect=0;image=data:image/png,iVBORw0KGgoAAAANSUhEUgAAAgAAAAIACAMAAADDpiTIAAAAA3NCSVQICAjb4U/gAAAACXBIWXMAAHYcAAB2HAGnwnjqAAAAGXRFWHRTb2Z0d2FyZQB3d3cuaW5rc2NhcGUub3Jnm+48GgAAArtQTFRF////AAAAAAAAAAAAAAAAAAAAAAAAAAAAAAAAAAAAAAAAAAAAAAAAAAAAAAAAAAAAAAAAAAAAAAAAAAAAAAAAAAAAAAAAAAAAAAAAAAAAAAAAAAAAAAAAAAAAAAAAAAAAAAAAAAAAAAAAAAAAAAAAAAAAAAAAAAAAAAAAAAAAAAAAAAAAAAAAAAAAAAAAAAAAAAAAAAAAAAAAAAAAAAAAAAAAAAAAAAAAAAAAAAAAAAAAAAAAAAAAAAAAAAAAAAAAAAAAAAAAAAAAAAAAAAAAAAAAAAAAAAAAAAAAAAAAAAAAAAAAAAAAAAAAAAAAAAAAAAAAAAAAAAAAAAAAAAAAAAAAAAAAAAAAAAAAAAAAAAAAAAAAAAAAAAAAAAAAAAAAAAAAAAAAAAAAAAAAAAAAAAAAAAAAAAAAAAAAAAAAAAAAAAAAAAAAAAAAAAAAAAAAAAAAAAAAAAAAAAAAAAAAAAAAAAAAAAAAAAAAAAAAAAAAAAAAAAAAAAAAAAAAAAAAAAAAAAAAAAAAAAAAAAAAAAAAAAAAAAAAAAAAAAAAAAAAAAAAAAAAAAAAAAAAAAAAAAAAAAAAAAAAAAAAAAAAAAAAAAAAAAAAAAAAAAAAAAAAAAAAAAAAAAAAAAAAAAAAAAAAAAAAAAAAAAAAAAAAAAAAAAAAAAAAAAAAAAAAAAAAAAAAAAAAAAAAAAAAAAAAAAAAAAAAAAAAAAAAAAAAAAAAAAAAAAAAAAAAAAAAAAAAAAAAAAAAAAAAAAAAAAAAAAAAAAAAAAAAAAAAAAAAAAAAAAAAAAAAAAAAAAAAAAAAAAAAAAAAAAAAAAAAAAAAAAAAAAAAAAAAAAAAAAAAAAAAAAAAAAAAAAAAAAAAAAAAAAAAAAAAAAAAAAAAAAAAAAAAAAAAAAAAAAAAAAAAAAAAAAAAAAAAAAAAbR3Z3AAAAOh0Uk5TAAECAwQFBgcICQoLDA0OEBESExUWFxgZGxwdHh8hIiMkJSYpKissLS4vMTIzNDU2Nzo7PD0+P0BBQ0RFRkdISUpLTE1OT1BRUlNUVVZXWFlaW1xdXl9gYWJjZGVmZ2hpamtsbW5vcXJzdHV2d3h5e3x9fn+AgYKFhoeIiYqLjI+QkZKTlJWXmZqbnJ2en6KjpKWmp6ipq6ytrq+wsbKztLW2t7i5uru8vr/AwcLDxMXGx8jJysvMzc7P0NHS09TV1tfY2drb3N3e3+Dh4uPk5ufo6err7O3u7/Dx8vP09fb3+Pn6+/z9/uASajAAAA40SURBVHja7d35m5VlHcfxMzCM6LC5YDpSEbhQCpqGhKZWtgjaghYKBllGpmWaltmYqZm7GSZtRlEkJpRUQFBGYZuYIJVkkamZC9x/Rj+0KMPMOfe5z/Pc93d5f3/00meY835d8owfL200/F3vSf1rd9z36VNHNziHN/qyJ8J/bscV+/FxeLu9L3w8vHhPXn0gH4mnG3HeH8Pu98wNE/hYvNzwuX8Ie95zt0/io/FwXaf/Ogx+O5dM4eMxf2/6eRj6di09mk/I9L3+x6HF3Xs8n5LZO+b7IeJWn8InZfKmLA2Rt+G0Lj4uazfprl0h/jadOZyPzNJNuO2F0N5tPreHj83KHXj9s6H927ZoHz46C7dv/9Mh7bZfPIaPT/u9uPmkHDuR8tt980k5diLFt+fmk3LsREpv8M0n5diJFN7Qm89L5587j7zkLzEE2Im0XdPN53939+GNRqP3gqjfJ9iJNF3rzSeEsGLaf//svd4f93sFO5GSi9p8Vr+0Zvd7fxPYiYxc1OazYWDJYWc8wE5k4aI2nwdnDVbxzWvYibRf1Oaz+T3DhvjLZ97HTqT5ojafbQtHNHnEa7/DTqT19r0qYvPZfsHIFo95zVd3shMpvKjN5++Xjop41OQ7nmcnUnZRm89TV46LfNzLb3qWnUjRRW0+/7pufBuPPOiap9mJlFzU5vP8LX1tPnb/K59gJ1JwkZvPxIRHj730cXYi6Re/+aRc70fYiURfe5tPyu113iPsRFKv/c0n5brn/padSOJN+VbK5pNyw97xC3YiaRe1+WyaVVGRrlPZiURd3OZz1rAKv+QJK9mJpFwFm0/KHftddiIJV9Hmk3JHfm0XO1Hhq3DzSblDv/QCO1HBq3jzSblX3MxOVOpq2HxS7qBr2YlKXE2bT8rt/xl2otxX4+aTcmM/wU6U9erdfFJu1IV/YifKdVGbzz3TMv+qRn5gCztRjsuz+SS9lZ79O3aiui/f5pNyw965kZ2ozsu7+SS9nb5lLTtRXVdg80m5E1exE9VxhTaflDtueRSBRxftTdbYK7j5pNxRX2cnqvIKbz4pd+hidqKqTsDmk3KvvIWdqJKfrqM2n2vHC/ylH3zdP9mJOjxBm0/KHdD/D3aiTn6qlrX5pNy4y/7KTpR68jaflBt10Z/ZiVJO5uaTciM/yE7U9kVtPvdr+cRGnMNO1NbJ3nyS3mbf9Ut2otiTv/kkvdG+dR07Ucwp2XxS7g0/YCdqdXGbz4IRSr+9477HTtTslG0+KXfUN6J2osc87kQKN5+UO+xOdqLBTunmk3ITb32OnWjgT8pxm88BRr7dvs+zE+32U7LuzSflxl/FTvT/n5D1bz4pN+7yv8XtREcY729j80l66/0oO5GhzSfpzff8rb53orjNZ7rlt995v/e7E9nbfJLegN/9K587kc3NJ+kt+G0/9bcTGd58Uu6kH/raiYxvPin3unv87ERxm8+HRzZ83dS7fexETjaflDv8y/Z3IkebT8pNvM32TuRs80m5vuufMbsTxW0+N/c1fN/4zz5pcidyuvkkvSV/0uBO5HfzSXpT/thjtnYi35tP0tvy+Y/a2YnYfFKuZ/5DNnaiuM3nZIrv+dY8x8BOxObT0Zvz29fr3onYfDq+k+/XuxOx+VRy01fo3InYfCq7ad/UtxNFbT47XG4+KXfEXTtV7URsPpXfq27XsxOx+dRyh3xBx07E5lPfW/XV8neirjPYfOp8s/7UDtk7EZtP7W/XFwveidh8srxhf0joTsTmk+t6zt0sbyeK2nzWs/lU9KZ95iZZOxGbT/a37dM2yNmJ2HyK3CmrZexEbD7F7vh7y+9EbD5F7+ilZXei0ZfHbD6XsPnU+Pa9pNxOxOYj4iZ9scxO1MPmI+Um3JB/J2LzEXUv+9xTWXeiuM1n8UTKZLv9rsi4E7H5SLwxH9+eZyeaweYj9PZZtC3qHwysOLaTL3IHm4/c63lf1E60a3HyPxoa+wCbj+jrPuvBGAJrRye+/S1rPT/wfz4qe12zfhYh4NtpD5/D5qPh3vij1gJOT3ryT9h8dNyMlv96zvqUxx7C5qPmjmn1r+gcnPDQE9l8FN2rv9J0Jzoh4ZHzm/xkcRF/9xd3hz3SBMD8hAcubCbq4XkQkPUT4dym/5GRhVUDgICm/LUAgICe/DUBgICW/LUBgICO/DUCCOHhed1kEJ6/VgAQkJ+/ZgAQkJ6/dgAQkJ0/AwAISM6fBQAE5ObPBAACUvNnAwABmfkrArBmGQR05F+2phYASxpTIaAh/9TGkpoANCCgIX+jRgAQUJC/XgAQEJ+/bgAQEJ6/fgAQEJ0/BwAICM6fBwAExObPBQACQvPnAwABkflzAoCAwPx5AUQTOAcCmfLnBgABYfnzA4CAqPwlAEBAUP4yACAgJn8pABAQkr8cAAiIyF8SAAQE5C8LIJbAZgjUlb80AAgUzl8eAASK5pcAAAIF88sAAIFi+aUAgECh/HIAQKBIfkkAIFAgvywAEMieXxoACGTOLw8ABLLmlwgAAhnzywQAgWz5pQJwTyBXfrkAXBPIl18yALcEcuaXDcAlgbz5pQOIJnB2N/ltAnBFIH9+DQDcECiRXwcAFwTK5NcCwDyBUvn1ADBNoFx+TQDMEiiZXxcAkwTK5tcGwByB0vn1ATBFoHx+jQDMEJCQXycAEwRk5NcKQD0BKfn1AlBNQE5+zQDUEpCUXzcAlQRk5dcOQB0Bafn1A4gl8JAEAvLyWwCghoDE/DYAqCAgM78VAOIJSM1vB4BoAnLzWwIgloDk/LYAiCQgO781AOIISM9vD0A0gbnd5LcJQAwBDfltAhBBQEd+qwCKE9CS3y6AogT05LcMoBgBTfltAyhCQFd+6wCyE9CW3z6ArAT05fcAIBsBjfl9AMhCQGd+LwBqJ6A1vx8AtRLQm98TgNoIaM7vC0AtBHTn9wagcgLa8/sDUCkB/fk9AqiMgIX8PgFUQsBGfq8AOiZgJb9fAB0RsJPfM4BkApby+waQRMBWfu8A2iZgLT8A2iJgLz8A2iFgMD8A2iFgMD8AqiWgLj8AqiSgMD8AqiOgMj8AqiKgND8AqiGgNj8AqiCgOD8AOiegOj8AOiWgPD8AOiOgPj8AOiFgID8A0gmYyA+AVAJG8gMgjYCZ/ACIILB+4He3fqqhbw8ALa9/4HfX3wAAAAAAAAAAAAAAAAAAAAAAAAAAAAAAAAAAAAAAAAAAAAAAAAAAAAAAAAAAAAAAAAAAAAAAAAAAAAAAAAAAAAAAAAAAAAAAAAAAAAAAAAAAAAAAAAAAAAAAAAAAAAAAAAAAAAAAAAAAAAAAAAAAAAAAAAAAAAAAAAAAAAAAAAAAAAAAAAAAAAAAAAAAAAAAAAAAAAAAAAAAAAAAAAAAAAAAAAAAAAAAAAAAAAAAAAAAAAAAAAAAAAAAAAAAAAAAAAAAAAAAAAAAAAAAAAAAAAAAAAAAAAAAAAAAAAAAAAAAAAAAAAAAAAAAAAAAAAAAAAAAAAAAAAAAAAAAAAAAAAAAAAAAAAAAAAAAAAAAAAAAAAAAAAAAAAAAAAAAAAAAAAAAAAAAAAAAAAAAAAAAAAAAAAAAAAAAAAAAAAAAAAAAAAAAAAAAAAAAAAAAAAAAAAAAAAAAAAAAAAAAAAAAAAAAAAAAAAAAAAAAAAAAAAAAAAAAAAAAAAAAAAAAAAAAAAAAAAAAAAAAAAAAAAAAAAAAAAAAAAAAAAAAAFA7gK2zuwCg4bpmb60FQAgb7RCwC6Br9sY9y1UEwBABqwAGzV8hADMEbAIYIn+lAIwQsAhgyPxpAOaFYJiAPQBN8ocwL+GBM0MwTMAagKb5Q5iZ8Mi+EAwTsAWgRf4Q+lKeui4YJmAJQMv8YV3Sc+eEYJeAHQCt84cwJ+nJw5cHuwSsAIjJH5YPT3v4mIhnayVgA0BU/rBxTOrze28MVglYABCXP9zY28HXmL7KKAH9ACLzr5re4deZYZOAdgCx+WdU8LVMEtANIGd+owQ0A8id3yQBvQBK5DdIQCuAUvnNEdAJoGR+YwQ0Aiid3xQBfQAk5DdEQBsAKfnNENAFQFJ+IwQ0AZCW3wQBPQAk5jdAQAsAqfnVE9ABQHJ+5QQ0AJCeXzUB+QA05FdMQDoALfnVEpANQFN+pQQkA9CWXyUBuQA05ldIQCoArfnVEZAJQHN+ZQQkAtCeXxUBeQAs5FdEQBoAK/nVEJAFwFJ+JQQkAbCWXwUBOQAs5ldAQAoAq/nFE5ABwHJ+4QQkALCeXzSB8gA85BdMoDQAL/nFEigLwFN+oQRKAvCWXySBcgA85hdIoBQAr/nFESgDwHN+YQRKAPCeXxSB/ADIL4pAbgDkF0YgLwDyiyOQEwD5BRLIB4D8IgnkAkB+oQTyACC/WAI5AJBfMIH6AZBfNIG6AZBfOIF6AZBfPIE6AZBfAYH6AJBfBYG6AJBfCYF6AJBfDYE6AJBfEYHqAZBfFYGqAZBfGYFqAZBfHYEqAZBfIYHqAJBfJYGqAJBfKYFqAJBfLYEqAJBfMYHOAZBfNYFOAZBfOYHOAJBfPYFOAJDfAIF0AOQ3QSAVAPmNEEgDQH4zBFIAkN8QgfYBkN8UgXYBkN8YgfYAkN8cgXYAkN8ggXgA5DdJIBYA+Y0SiANAfrMEYgCQ3zCB1gDIb5pAKwDkN06gOQDymyfQDAD5HRAYGgD5XRAYCgD5nRAYHAD53RAYDAD5HRHYEwD5XRFYOfCPrCS/LwIpR37XBMjvmgD5XRMgv2sC5HdNgPyuCZDfNQHyuyZAftcEyO+aAPldEyC/awLkd02A/K4JkN81AfK7JkB+1wTI75oA+V0TIL9rAuR3epMXLN6yZfGCyZ4/g38D1s94+saPAR0AAAAASUVORK5CYII=;" parent="tnWjY13QGrS4U4Cpanh3-1" vertex="1">
          <mxGeometry x="798" y="480" width="30" height="30" as="geometry" />
        </mxCell>
        <mxCell id="pVKYjR1IG8FrRiqu0qTl-14" value="&amp;nbsp;Biometric deduplication" style="text;html=1;strokeColor=none;fillColor=none;align=center;verticalAlign=middle;whiteSpace=wrap;rounded=0;" parent="tnWjY13QGrS4U4Cpanh3-1" vertex="1">
          <mxGeometry x="880" y="224" width="80" height="76" as="geometry" />
        </mxCell>
        <mxCell id="pVKYjR1IG8FrRiqu0qTl-15" value="Duplicates found in ABIS" style="text;html=1;strokeColor=none;fillColor=none;align=center;verticalAlign=middle;whiteSpace=wrap;rounded=0;" parent="tnWjY13QGrS4U4Cpanh3-1" vertex="1">
          <mxGeometry x="812" y="360" width="70" height="100" as="geometry" />
        </mxCell>
        <mxCell id="pVKYjR1IG8FrRiqu0qTl-16" value="Identity Service" style="rounded=1;whiteSpace=wrap;html=1;fillColor=#FFFFFF;" parent="tnWjY13QGrS4U4Cpanh3-1" vertex="1">
          <mxGeometry x="1160" y="90" width="120" height="60" as="geometry" />
        </mxCell>
        <mxCell id="pVKYjR1IG8FrRiqu0qTl-17" value="Credential Services" style="rounded=1;whiteSpace=wrap;html=1;fillColor=#FFFFFF;" parent="tnWjY13QGrS4U4Cpanh3-1" vertex="1">
          <mxGeometry x="1120" y="475" width="150" height="60" as="geometry" />
        </mxCell>
        <mxCell id="pVKYjR1IG8FrRiqu0qTl-20" value="IDA internal&#xa;authentication&#xa;service" style="shape=image;verticalLabelPosition=bottom;labelBackgroundColor=#ffffff;verticalAlign=top;aspect=fixed;imageAspect=0;image=data:image/png,iVBORw0KGgoAAAANSUhEUgAAAgAAAAIACAMAAADDpiTIAAAAA3NCSVQICAjb4U/gAAAACXBIWXMAAHYcAAB2HAGnwnjqAAAAGXRFWHRTb2Z0d2FyZQB3d3cuaW5rc2NhcGUub3Jnm+48GgAAArtQTFRF////AAAAAAAAAAAAAAAAAAAAAAAAAAAAAAAAAAAAAAAAAAAAAAAAAAAAAAAAAAAAAAAAAAAAAAAAAAAAAAAAAAAAAAAAAAAAAAAAAAAAAAAAAAAAAAAAAAAAAAAAAAAAAAAAAAAAAAAAAAAAAAAAAAAAAAAAAAAAAAAAAAAAAAAAAAAAAAAAAAAAAAAAAAAAAAAAAAAAAAAAAAAAAAAAAAAAAAAAAAAAAAAAAAAAAAAAAAAAAAAAAAAAAAAAAAAAAAAAAAAAAAAAAAAAAAAAAAAAAAAAAAAAAAAAAAAAAAAAAAAAAAAAAAAAAAAAAAAAAAAAAAAAAAAAAAAAAAAAAAAAAAAAAAAAAAAAAAAAAAAAAAAAAAAAAAAAAAAAAAAAAAAAAAAAAAAAAAAAAAAAAAAAAAAAAAAAAAAAAAAAAAAAAAAAAAAAAAAAAAAAAAAAAAAAAAAAAAAAAAAAAAAAAAAAAAAAAAAAAAAAAAAAAAAAAAAAAAAAAAAAAAAAAAAAAAAAAAAAAAAAAAAAAAAAAAAAAAAAAAAAAAAAAAAAAAAAAAAAAAAAAAAAAAAAAAAAAAAAAAAAAAAAAAAAAAAAAAAAAAAAAAAAAAAAAAAAAAAAAAAAAAAAAAAAAAAAAAAAAAAAAAAAAAAAAAAAAAAAAAAAAAAAAAAAAAAAAAAAAAAAAAAAAAAAAAAAAAAAAAAAAAAAAAAAAAAAAAAAAAAAAAAAAAAAAAAAAAAAAAAAAAAAAAAAAAAAAAAAAAAAAAAAAAAAAAAAAAAAAAAAAAAAAAAAAAAAAAAAAAAAAAAAAAAAAAAAAAAAAAAAAAAAAAAAAAAAAAAAAAAAAAAAAAAAAAAAAAAAAAAAAAAAAAAAAAAAAAAAAAAAAAAAAAAAAAAAAAAAAAAAAAAAAAAAAAAAAAAAAAAAAAAAAAAAbR3Z3AAAAOh0Uk5TAAECAwQFBgcICQoLDA0OEBESExUWFxgZGxwdHh8hIiMkJSYpKissLS4vMTIzNDU2Nzo7PD0+P0BBQ0RFRkdISUpLTE1OT1BRUlNUVVZXWFlaW1xdXl9gYWJjZGVmZ2hpamtsbW5vcXJzdHV2d3h5e3x9fn+AgYKFhoeIiYqLjI+QkZKTlJWXmZqbnJ2en6KjpKWmp6ipq6ytrq+wsbKztLW2t7i5uru8vr/AwcLDxMXGx8jJysvMzc7P0NHS09TV1tfY2drb3N3e3+Dh4uPk5ufo6err7O3u7/Dx8vP09fb3+Pn6+/z9/uASajAAAA40SURBVHja7d35m5VlHcfxMzCM6LC5YDpSEbhQCpqGhKZWtgjaghYKBllGpmWaltmYqZm7GSZtRlEkJpRUQFBGYZuYIJVkkamZC9x/Rj+0KMPMOfe5z/Pc93d5f3/00meY835d8owfL200/F3vSf1rd9z36VNHNziHN/qyJ8J/bscV+/FxeLu9L3w8vHhPXn0gH4mnG3HeH8Pu98wNE/hYvNzwuX8Ie95zt0/io/FwXaf/Ogx+O5dM4eMxf2/6eRj6di09mk/I9L3+x6HF3Xs8n5LZO+b7IeJWn8InZfKmLA2Rt+G0Lj4uazfprl0h/jadOZyPzNJNuO2F0N5tPreHj83KHXj9s6H927ZoHz46C7dv/9Mh7bZfPIaPT/u9uPmkHDuR8tt980k5diLFt+fmk3LsREpv8M0n5diJFN7Qm89L5587j7zkLzEE2Im0XdPN53939+GNRqP3gqjfJ9iJNF3rzSeEsGLaf//svd4f93sFO5GSi9p8Vr+0Zvd7fxPYiYxc1OazYWDJYWc8wE5k4aI2nwdnDVbxzWvYibRf1Oaz+T3DhvjLZ97HTqT5ojafbQtHNHnEa7/DTqT19r0qYvPZfsHIFo95zVd3shMpvKjN5++Xjop41OQ7nmcnUnZRm89TV46LfNzLb3qWnUjRRW0+/7pufBuPPOiap9mJlFzU5vP8LX1tPnb/K59gJ1JwkZvPxIRHj730cXYi6Re/+aRc70fYiURfe5tPyu113iPsRFKv/c0n5brn/padSOJN+VbK5pNyw97xC3YiaRe1+WyaVVGRrlPZiURd3OZz1rAKv+QJK9mJpFwFm0/KHftddiIJV9Hmk3JHfm0XO1Hhq3DzSblDv/QCO1HBq3jzSblX3MxOVOpq2HxS7qBr2YlKXE2bT8rt/xl2otxX4+aTcmM/wU6U9erdfFJu1IV/YifKdVGbzz3TMv+qRn5gCztRjsuz+SS9lZ79O3aiui/f5pNyw965kZ2ozsu7+SS9nb5lLTtRXVdg80m5E1exE9VxhTaflDtueRSBRxftTdbYK7j5pNxRX2cnqvIKbz4pd+hidqKqTsDmk3KvvIWdqJKfrqM2n2vHC/ylH3zdP9mJOjxBm0/KHdD/D3aiTn6qlrX5pNy4y/7KTpR68jaflBt10Z/ZiVJO5uaTciM/yE7U9kVtPvdr+cRGnMNO1NbJ3nyS3mbf9Ut2otiTv/kkvdG+dR07Ucwp2XxS7g0/YCdqdXGbz4IRSr+9477HTtTslG0+KXfUN6J2osc87kQKN5+UO+xOdqLBTunmk3ITb32OnWjgT8pxm88BRr7dvs+zE+32U7LuzSflxl/FTvT/n5D1bz4pN+7yv8XtREcY729j80l66/0oO5GhzSfpzff8rb53orjNZ7rlt995v/e7E9nbfJLegN/9K587kc3NJ+kt+G0/9bcTGd58Uu6kH/raiYxvPin3unv87ERxm8+HRzZ83dS7fexETjaflDv8y/Z3IkebT8pNvM32TuRs80m5vuufMbsTxW0+N/c1fN/4zz5pcidyuvkkvSV/0uBO5HfzSXpT/thjtnYi35tP0tvy+Y/a2YnYfFKuZ/5DNnaiuM3nZIrv+dY8x8BOxObT0Zvz29fr3onYfDq+k+/XuxOx+VRy01fo3InYfCq7ad/UtxNFbT47XG4+KXfEXTtV7URsPpXfq27XsxOx+dRyh3xBx07E5lPfW/XV8neirjPYfOp8s/7UDtk7EZtP7W/XFwveidh8srxhf0joTsTmk+t6zt0sbyeK2nzWs/lU9KZ95iZZOxGbT/a37dM2yNmJ2HyK3CmrZexEbD7F7vh7y+9EbD5F7+ilZXei0ZfHbD6XsPnU+Pa9pNxOxOYj4iZ9scxO1MPmI+Um3JB/J2LzEXUv+9xTWXeiuM1n8UTKZLv9rsi4E7H5SLwxH9+eZyeaweYj9PZZtC3qHwysOLaTL3IHm4/c63lf1E60a3HyPxoa+wCbj+jrPuvBGAJrRye+/S1rPT/wfz4qe12zfhYh4NtpD5/D5qPh3vij1gJOT3ryT9h8dNyMlv96zvqUxx7C5qPmjmn1r+gcnPDQE9l8FN2rv9J0Jzoh4ZHzm/xkcRF/9xd3hz3SBMD8hAcubCbq4XkQkPUT4dym/5GRhVUDgICm/LUAgICe/DUBgICW/LUBgICO/DUCCOHhed1kEJ6/VgAQkJ+/ZgAQkJ6/dgAQkJ0/AwAISM6fBQAE5ObPBAACUvNnAwABmfkrArBmGQR05F+2phYASxpTIaAh/9TGkpoANCCgIX+jRgAQUJC/XgAQEJ+/bgAQEJ6/fgAQEJ0/BwAICM6fBwAExObPBQACQvPnAwABkflzAoCAwPx5AUQTOAcCmfLnBgABYfnzA4CAqPwlAEBAUP4yACAgJn8pABAQkr8cAAiIyF8SAAQE5C8LIJbAZgjUlb80AAgUzl8eAASK5pcAAAIF88sAAIFi+aUAgECh/HIAQKBIfkkAIFAgvywAEMieXxoACGTOLw8ABLLmlwgAAhnzywQAgWz5pQJwTyBXfrkAXBPIl18yALcEcuaXDcAlgbz5pQOIJnB2N/ltAnBFIH9+DQDcECiRXwcAFwTK5NcCwDyBUvn1ADBNoFx+TQDMEiiZXxcAkwTK5tcGwByB0vn1ATBFoHx+jQDMEJCQXycAEwRk5NcKQD0BKfn1AlBNQE5+zQDUEpCUXzcAlQRk5dcOQB0Bafn1A4gl8JAEAvLyWwCghoDE/DYAqCAgM78VAOIJSM1vB4BoAnLzWwIgloDk/LYAiCQgO781AOIISM9vD0A0gbnd5LcJQAwBDfltAhBBQEd+qwCKE9CS3y6AogT05LcMoBgBTfltAyhCQFd+6wCyE9CW3z6ArAT05fcAIBsBjfl9AMhCQGd+LwBqJ6A1vx8AtRLQm98TgNoIaM7vC0AtBHTn9wagcgLa8/sDUCkB/fk9AqiMgIX8PgFUQsBGfq8AOiZgJb9fAB0RsJPfM4BkApby+waQRMBWfu8A2iZgLT8A2iJgLz8A2iFgMD8A2iFgMD8AqiWgLj8AqiSgMD8AqiOgMj8AqiKgND8AqiGgNj8AqiCgOD8AOiegOj8AOiWgPD8AOiOgPj8AOiFgID8A0gmYyA+AVAJG8gMgjYCZ/ACIILB+4He3fqqhbw8ALa9/4HfX3wAAAAAAAAAAAAAAAAAAAAAAAAAAAAAAAAAAAAAAAAAAAAAAAAAAAAAAAAAAAAAAAAAAAAAAAAAAAAAAAAAAAAAAAAAAAAAAAAAAAAAAAAAAAAAAAAAAAAAAAAAAAAAAAAAAAAAAAAAAAAAAAAAAAAAAAAAAAAAAAAAAAAAAAAAAAAAAAAAAAAAAAAAAAAAAAAAAAAAAAAAAAAAAAAAAAAAAAAAAAAAAAAAAAAAAAAAAAAAAAAAAAAAAAAAAAAAAAAAAAAAAAAAAAAAAAAAAAAAAAAAAAAAAAAAAAAAAAAAAAAAAAAAAAAAAAAAAAAAAAAAAAAAAAAAAAAAAAAAAAAAAAAAAAAAAAAAAAAAAAAAAAAAAAAAAAAAAAAAAAAAAAAAAAAAAAAAAAAAAAAAAAAAAAAAAAAAAAAAAAAAAAAAAAAAAAAAAAAAAAAAAAAAAAAAAAAAAAAAAAAAAAAAAAAAAAAAAAAAAAAAAAAAAAAAAAAAAAAAAAAAAAAAAAAAAAAAAAAAAAAAAAAAAAAAAAAAAAAAAAAAAAAAAAFA7gK2zuwCg4bpmb60FQAgb7RCwC6Br9sY9y1UEwBABqwAGzV8hADMEbAIYIn+lAIwQsAhgyPxpAOaFYJiAPQBN8ocwL+GBM0MwTMAagKb5Q5iZ8Mi+EAwTsAWgRf4Q+lKeui4YJmAJQMv8YV3Sc+eEYJeAHQCt84cwJ+nJw5cHuwSsAIjJH5YPT3v4mIhnayVgA0BU/rBxTOrze28MVglYABCXP9zY28HXmL7KKAH9ACLzr5re4deZYZOAdgCx+WdU8LVMEtANIGd+owQ0A8id3yQBvQBK5DdIQCuAUvnNEdAJoGR+YwQ0Aiid3xQBfQAk5DdEQBsAKfnNENAFQFJ+IwQ0AZCW3wQBPQAk5jdAQAsAqfnVE9ABQHJ+5QQ0AJCeXzUB+QA05FdMQDoALfnVEpANQFN+pQQkA9CWXyUBuQA05ldIQCoArfnVEZAJQHN+ZQQkAtCeXxUBeQAs5FdEQBoAK/nVEJAFwFJ+JQQkAbCWXwUBOQAs5ldAQAoAq/nFE5ABwHJ+4QQkALCeXzSB8gA85BdMoDQAL/nFEigLwFN+oQRKAvCWXySBcgA85hdIoBQAr/nFESgDwHN+YQRKAPCeXxSB/ADIL4pAbgDkF0YgLwDyiyOQEwD5BRLIB4D8IgnkAkB+oQTyACC/WAI5AJBfMIH6AZBfNIG6AZBfOIF6AZBfPIE6AZBfAYH6AJBfBYG6AJBfCYF6AJBfDYE6AJBfEYHqAZBfFYGqAZBfGYFqAZBfHYEqAZBfIYHqAJBfJYGqAJBfKYFqAJBfLYEqAJBfMYHOAZBfNYFOAZBfOYHOAJBfPYFOAJDfAIF0AOQ3QSAVAPmNEEgDQH4zBFIAkN8QgfYBkN8UgXYBkN8YgfYAkN8cgXYAkN8ggXgA5DdJIBYA+Y0SiANAfrMEYgCQ3zCB1gDIb5pAKwDkN06gOQDymyfQDAD5HRAYGgD5XRAYCgD5nRAYHAD53RAYDAD5HRHYEwD5XRFYOfCPrCS/LwIpR37XBMjvmgD5XRMgv2sC5HdNgPyuCZDfNQHyuyZAftcEyO+aAPldEyC/awLkd02A/K4JkN81AfK7JkB+1wTI75oA+V0TIL9rAuR3epMXLN6yZfGCyZ4/g38D1s94+saPAR0AAAAASUVORK5CYII=;" parent="tnWjY13QGrS4U4Cpanh3-1" vertex="1">
          <mxGeometry x="1290" y="310" width="30" height="30" as="geometry" />
        </mxCell>
        <mxCell id="pVKYjR1IG8FrRiqu0qTl-22" value="Biometric authentication of registration offices/ introducers" style="text;html=1;strokeColor=none;fillColor=none;align=center;verticalAlign=middle;whiteSpace=wrap;rounded=0;" parent="tnWjY13QGrS4U4Cpanh3-1" vertex="1">
          <mxGeometry x="1100" y="270" width="160" height="70" as="geometry" />
        </mxCell>
        <mxCell id="pVKYjR1IG8FrRiqu0qTl-24" value="Stores/Updates/Activates and Deactivates an ID&amp;nbsp;" style="text;html=1;strokeColor=none;fillColor=none;align=center;verticalAlign=middle;whiteSpace=wrap;rounded=0;" parent="tnWjY13QGrS4U4Cpanh3-1" vertex="1">
          <mxGeometry x="1020" y="160" width="110" height="20" as="geometry" />
        </mxCell>
        <mxCell id="pVKYjR1IG8FrRiqu0qTl-25" value="Issues credential for Printing System" style="text;html=1;strokeColor=none;fillColor=none;align=center;verticalAlign=middle;whiteSpace=wrap;rounded=0;" parent="tnWjY13QGrS4U4Cpanh3-1" vertex="1">
          <mxGeometry x="1090" y="410" width="160" height="70" as="geometry" />
        </mxCell>
        <mxCell id="pVKYjR1IG8FrRiqu0qTl-26" value="WebSub Hub" style="sketch=0;aspect=fixed;html=1;points=[];align=center;image;fontSize=12;image=img/lib/mscae/Event_Hub_Clusters.svg;fontColor=#000000;fillColor=#FFFFFF;" parent="tnWjY13QGrS4U4Cpanh3-1" vertex="1">
          <mxGeometry x="1310" y="471" width="50" height="48" as="geometry" />
        </mxCell>
        <mxCell id="pVKYjR1IG8FrRiqu0qTl-29" value="Notification&#xa;Service" style="shape=image;verticalLabelPosition=bottom;labelBackgroundColor=#ffffff;verticalAlign=top;aspect=fixed;imageAspect=0;image=data:image/png,iVBORw0KGgoAAAANSUhEUgAAAgAAAAIACAMAAADDpiTIAAAAA3NCSVQICAjb4U/gAAAACXBIWXMAAHYcAAB2HAGnwnjqAAAAGXRFWHRTb2Z0d2FyZQB3d3cuaW5rc2NhcGUub3Jnm+48GgAAArtQTFRF////AAAAAAAAAAAAAAAAAAAAAAAAAAAAAAAAAAAAAAAAAAAAAAAAAAAAAAAAAAAAAAAAAAAAAAAAAAAAAAAAAAAAAAAAAAAAAAAAAAAAAAAAAAAAAAAAAAAAAAAAAAAAAAAAAAAAAAAAAAAAAAAAAAAAAAAAAAAAAAAAAAAAAAAAAAAAAAAAAAAAAAAAAAAAAAAAAAAAAAAAAAAAAAAAAAAAAAAAAAAAAAAAAAAAAAAAAAAAAAAAAAAAAAAAAAAAAAAAAAAAAAAAAAAAAAAAAAAAAAAAAAAAAAAAAAAAAAAAAAAAAAAAAAAAAAAAAAAAAAAAAAAAAAAAAAAAAAAAAAAAAAAAAAAAAAAAAAAAAAAAAAAAAAAAAAAAAAAAAAAAAAAAAAAAAAAAAAAAAAAAAAAAAAAAAAAAAAAAAAAAAAAAAAAAAAAAAAAAAAAAAAAAAAAAAAAAAAAAAAAAAAAAAAAAAAAAAAAAAAAAAAAAAAAAAAAAAAAAAAAAAAAAAAAAAAAAAAAAAAAAAAAAAAAAAAAAAAAAAAAAAAAAAAAAAAAAAAAAAAAAAAAAAAAAAAAAAAAAAAAAAAAAAAAAAAAAAAAAAAAAAAAAAAAAAAAAAAAAAAAAAAAAAAAAAAAAAAAAAAAAAAAAAAAAAAAAAAAAAAAAAAAAAAAAAAAAAAAAAAAAAAAAAAAAAAAAAAAAAAAAAAAAAAAAAAAAAAAAAAAAAAAAAAAAAAAAAAAAAAAAAAAAAAAAAAAAAAAAAAAAAAAAAAAAAAAAAAAAAAAAAAAAAAAAAAAAAAAAAAAAAAAAAAAAAAAAAAAAAAAAAAAAAAAAAAAAAAAAAAAAAAAAAAAAAAAAAAAAAAAAAAAAAAAAAAAAAAAAAAAAAAAAAAAAAAAAAAAAAAAAAAAAAAAAAAAAAAAAAAAAAAAAAAAAbR3Z3AAAAOh0Uk5TAAECAwQFBgcICQoLDA0OEBESExUWFxgZGxwdHh8hIiMkJSYpKissLS4vMTIzNDU2Nzo7PD0+P0BBQ0RFRkdISUpLTE1OT1BRUlNUVVZXWFlaW1xdXl9gYWJjZGVmZ2hpamtsbW5vcXJzdHV2d3h5e3x9fn+AgYKFhoeIiYqLjI+QkZKTlJWXmZqbnJ2en6KjpKWmp6ipq6ytrq+wsbKztLW2t7i5uru8vr/AwcLDxMXGx8jJysvMzc7P0NHS09TV1tfY2drb3N3e3+Dh4uPk5ufo6err7O3u7/Dx8vP09fb3+Pn6+/z9/uASajAAAA40SURBVHja7d35m5VlHcfxMzCM6LC5YDpSEbhQCpqGhKZWtgjaghYKBllGpmWaltmYqZm7GSZtRlEkJpRUQFBGYZuYIJVkkamZC9x/Rj+0KMPMOfe5z/Pc93d5f3/00meY835d8owfL200/F3vSf1rd9z36VNHNziHN/qyJ8J/bscV+/FxeLu9L3w8vHhPXn0gH4mnG3HeH8Pu98wNE/hYvNzwuX8Ie95zt0/io/FwXaf/Ogx+O5dM4eMxf2/6eRj6di09mk/I9L3+x6HF3Xs8n5LZO+b7IeJWn8InZfKmLA2Rt+G0Lj4uazfprl0h/jadOZyPzNJNuO2F0N5tPreHj83KHXj9s6H927ZoHz46C7dv/9Mh7bZfPIaPT/u9uPmkHDuR8tt980k5diLFt+fmk3LsREpv8M0n5diJFN7Qm89L5587j7zkLzEE2Im0XdPN53939+GNRqP3gqjfJ9iJNF3rzSeEsGLaf//svd4f93sFO5GSi9p8Vr+0Zvd7fxPYiYxc1OazYWDJYWc8wE5k4aI2nwdnDVbxzWvYibRf1Oaz+T3DhvjLZ97HTqT5ojafbQtHNHnEa7/DTqT19r0qYvPZfsHIFo95zVd3shMpvKjN5++Xjop41OQ7nmcnUnZRm89TV46LfNzLb3qWnUjRRW0+/7pufBuPPOiap9mJlFzU5vP8LX1tPnb/K59gJ1JwkZvPxIRHj730cXYi6Re/+aRc70fYiURfe5tPyu113iPsRFKv/c0n5brn/padSOJN+VbK5pNyw97xC3YiaRe1+WyaVVGRrlPZiURd3OZz1rAKv+QJK9mJpFwFm0/KHftddiIJV9Hmk3JHfm0XO1Hhq3DzSblDv/QCO1HBq3jzSblX3MxOVOpq2HxS7qBr2YlKXE2bT8rt/xl2otxX4+aTcmM/wU6U9erdfFJu1IV/YifKdVGbzz3TMv+qRn5gCztRjsuz+SS9lZ79O3aiui/f5pNyw965kZ2ozsu7+SS9nb5lLTtRXVdg80m5E1exE9VxhTaflDtueRSBRxftTdbYK7j5pNxRX2cnqvIKbz4pd+hidqKqTsDmk3KvvIWdqJKfrqM2n2vHC/ylH3zdP9mJOjxBm0/KHdD/D3aiTn6qlrX5pNy4y/7KTpR68jaflBt10Z/ZiVJO5uaTciM/yE7U9kVtPvdr+cRGnMNO1NbJ3nyS3mbf9Ut2otiTv/kkvdG+dR07Ucwp2XxS7g0/YCdqdXGbz4IRSr+9477HTtTslG0+KXfUN6J2osc87kQKN5+UO+xOdqLBTunmk3ITb32OnWjgT8pxm88BRr7dvs+zE+32U7LuzSflxl/FTvT/n5D1bz4pN+7yv8XtREcY729j80l66/0oO5GhzSfpzff8rb53orjNZ7rlt995v/e7E9nbfJLegN/9K587kc3NJ+kt+G0/9bcTGd58Uu6kH/raiYxvPin3unv87ERxm8+HRzZ83dS7fexETjaflDv8y/Z3IkebT8pNvM32TuRs80m5vuufMbsTxW0+N/c1fN/4zz5pcidyuvkkvSV/0uBO5HfzSXpT/thjtnYi35tP0tvy+Y/a2YnYfFKuZ/5DNnaiuM3nZIrv+dY8x8BOxObT0Zvz29fr3onYfDq+k+/XuxOx+VRy01fo3InYfCq7ad/UtxNFbT47XG4+KXfEXTtV7URsPpXfq27XsxOx+dRyh3xBx07E5lPfW/XV8neirjPYfOp8s/7UDtk7EZtP7W/XFwveidh8srxhf0joTsTmk+t6zt0sbyeK2nzWs/lU9KZ95iZZOxGbT/a37dM2yNmJ2HyK3CmrZexEbD7F7vh7y+9EbD5F7+ilZXei0ZfHbD6XsPnU+Pa9pNxOxOYj4iZ9scxO1MPmI+Um3JB/J2LzEXUv+9xTWXeiuM1n8UTKZLv9rsi4E7H5SLwxH9+eZyeaweYj9PZZtC3qHwysOLaTL3IHm4/c63lf1E60a3HyPxoa+wCbj+jrPuvBGAJrRye+/S1rPT/wfz4qe12zfhYh4NtpD5/D5qPh3vij1gJOT3ryT9h8dNyMlv96zvqUxx7C5qPmjmn1r+gcnPDQE9l8FN2rv9J0Jzoh4ZHzm/xkcRF/9xd3hz3SBMD8hAcubCbq4XkQkPUT4dym/5GRhVUDgICm/LUAgICe/DUBgICW/LUBgICO/DUCCOHhed1kEJ6/VgAQkJ+/ZgAQkJ6/dgAQkJ0/AwAISM6fBQAE5ObPBAACUvNnAwABmfkrArBmGQR05F+2phYASxpTIaAh/9TGkpoANCCgIX+jRgAQUJC/XgAQEJ+/bgAQEJ6/fgAQEJ0/BwAICM6fBwAExObPBQACQvPnAwABkflzAoCAwPx5AUQTOAcCmfLnBgABYfnzA4CAqPwlAEBAUP4yACAgJn8pABAQkr8cAAiIyF8SAAQE5C8LIJbAZgjUlb80AAgUzl8eAASK5pcAAAIF88sAAIFi+aUAgECh/HIAQKBIfkkAIFAgvywAEMieXxoACGTOLw8ABLLmlwgAAhnzywQAgWz5pQJwTyBXfrkAXBPIl18yALcEcuaXDcAlgbz5pQOIJnB2N/ltAnBFIH9+DQDcECiRXwcAFwTK5NcCwDyBUvn1ADBNoFx+TQDMEiiZXxcAkwTK5tcGwByB0vn1ATBFoHx+jQDMEJCQXycAEwRk5NcKQD0BKfn1AlBNQE5+zQDUEpCUXzcAlQRk5dcOQB0Bafn1A4gl8JAEAvLyWwCghoDE/DYAqCAgM78VAOIJSM1vB4BoAnLzWwIgloDk/LYAiCQgO781AOIISM9vD0A0gbnd5LcJQAwBDfltAhBBQEd+qwCKE9CS3y6AogT05LcMoBgBTfltAyhCQFd+6wCyE9CW3z6ArAT05fcAIBsBjfl9AMhCQGd+LwBqJ6A1vx8AtRLQm98TgNoIaM7vC0AtBHTn9wagcgLa8/sDUCkB/fk9AqiMgIX8PgFUQsBGfq8AOiZgJb9fAB0RsJPfM4BkApby+waQRMBWfu8A2iZgLT8A2iJgLz8A2iFgMD8A2iFgMD8AqiWgLj8AqiSgMD8AqiOgMj8AqiKgND8AqiGgNj8AqiCgOD8AOiegOj8AOiWgPD8AOiOgPj8AOiFgID8A0gmYyA+AVAJG8gMgjYCZ/ACIILB+4He3fqqhbw8ALa9/4HfX3wAAAAAAAAAAAAAAAAAAAAAAAAAAAAAAAAAAAAAAAAAAAAAAAAAAAAAAAAAAAAAAAAAAAAAAAAAAAAAAAAAAAAAAAAAAAAAAAAAAAAAAAAAAAAAAAAAAAAAAAAAAAAAAAAAAAAAAAAAAAAAAAAAAAAAAAAAAAAAAAAAAAAAAAAAAAAAAAAAAAAAAAAAAAAAAAAAAAAAAAAAAAAAAAAAAAAAAAAAAAAAAAAAAAAAAAAAAAAAAAAAAAAAAAAAAAAAAAAAAAAAAAAAAAAAAAAAAAAAAAAAAAAAAAAAAAAAAAAAAAAAAAAAAAAAAAAAAAAAAAAAAAAAAAAAAAAAAAAAAAAAAAAAAAAAAAAAAAAAAAAAAAAAAAAAAAAAAAAAAAAAAAAAAAAAAAAAAAAAAAAAAAAAAAAAAAAAAAAAAAAAAAAAAAAAAAAAAAAAAAAAAAAAAAAAAAAAAAAAAAAAAAAAAAAAAAAAAAAAAAAAAAAAAAAAAAAAAAAAAAAAAAAAAAAAAAAAAAAAAAAAAAAAAAAAAAAAAAAAAAAAAAAAAAFA7gK2zuwCg4bpmb60FQAgb7RCwC6Br9sY9y1UEwBABqwAGzV8hADMEbAIYIn+lAIwQsAhgyPxpAOaFYJiAPQBN8ocwL+GBM0MwTMAagKb5Q5iZ8Mi+EAwTsAWgRf4Q+lKeui4YJmAJQMv8YV3Sc+eEYJeAHQCt84cwJ+nJw5cHuwSsAIjJH5YPT3v4mIhnayVgA0BU/rBxTOrze28MVglYABCXP9zY28HXmL7KKAH9ACLzr5re4deZYZOAdgCx+WdU8LVMEtANIGd+owQ0A8id3yQBvQBK5DdIQCuAUvnNEdAJoGR+YwQ0Aiid3xQBfQAk5DdEQBsAKfnNENAFQFJ+IwQ0AZCW3wQBPQAk5jdAQAsAqfnVE9ABQHJ+5QQ0AJCeXzUB+QA05FdMQDoALfnVEpANQFN+pQQkA9CWXyUBuQA05ldIQCoArfnVEZAJQHN+ZQQkAtCeXxUBeQAs5FdEQBoAK/nVEJAFwFJ+JQQkAbCWXwUBOQAs5ldAQAoAq/nFE5ABwHJ+4QQkALCeXzSB8gA85BdMoDQAL/nFEigLwFN+oQRKAvCWXySBcgA85hdIoBQAr/nFESgDwHN+YQRKAPCeXxSB/ADIL4pAbgDkF0YgLwDyiyOQEwD5BRLIB4D8IgnkAkB+oQTyACC/WAI5AJBfMIH6AZBfNIG6AZBfOIF6AZBfPIE6AZBfAYH6AJBfBYG6AJBfCYF6AJBfDYE6AJBfEYHqAZBfFYGqAZBfGYFqAZBfHYEqAZBfIYHqAJBfJYGqAJBfKYFqAJBfLYEqAJBfMYHOAZBfNYFOAZBfOYHOAJBfPYFOAJDfAIF0AOQ3QSAVAPmNEEgDQH4zBFIAkN8QgfYBkN8UgXYBkN8YgfYAkN8cgXYAkN8ggXgA5DdJIBYA+Y0SiANAfrMEYgCQ3zCB1gDIb5pAKwDkN06gOQDymyfQDAD5HRAYGgD5XRAYCgD5nRAYHAD53RAYDAD5HRHYEwD5XRFYOfCPrCS/LwIpR37XBMjvmgD5XRMgv2sC5HdNgPyuCZDfNQHyuyZAftcEyO+aAPldEyC/awLkd02A/K4JkN81AfK7JkB+1wTI75oA+V0TIL9rAuR3epMXLN6yZfGCyZ4/g38D1s94+saPAR0AAAAASUVORK5CYII=;" parent="tnWjY13QGrS4U4Cpanh3-1" vertex="1">
          <mxGeometry x="930" y="480" width="30" height="30" as="geometry" />
        </mxCell>
        <mxCell id="pVKYjR1IG8FrRiqu0qTl-30" value="UIN Status" style="text;html=1;strokeColor=none;fillColor=none;align=center;verticalAlign=middle;whiteSpace=wrap;rounded=0;" parent="tnWjY13QGrS4U4Cpanh3-1" vertex="1">
          <mxGeometry x="940" y="360" width="80" height="100" as="geometry" />
        </mxCell>
        <mxCell id="4UM01iXroUcWe9rMPNOq-0" value="" style="verticalLabelPosition=bottom;sketch=0;html=1;fillColor=#282828;strokeColor=none;verticalAlign=top;pointerEvents=1;align=center;shape=mxgraph.cisco_safe.security_icons.antivirus;" parent="tnWjY13QGrS4U4Cpanh3-1" vertex="1">
          <mxGeometry x="404" y="560" width="50" height="32.5" as="geometry" />
        </mxCell>
        <mxCell id="4UM01iXroUcWe9rMPNOq-6" value="" style="endArrow=none;html=1;rounded=0;entryX=1;entryY=0.5;entryDx=0;entryDy=0;" parent="tnWjY13QGrS4U4Cpanh3-1" target="njnrTh6iUSXitSiZzmFP-0" edge="1">
          <mxGeometry width="50" height="50" relative="1" as="geometry">
            <mxPoint x="400" y="301" as="sourcePoint" />
            <mxPoint x="400" y="270" as="targetPoint" />
            <Array as="points">
              <mxPoint x="400" y="145" />
            </Array>
          </mxGeometry>
        </mxCell>
        <mxCell id="4UM01iXroUcWe9rMPNOq-7" value="" style="endArrow=none;html=1;rounded=0;entryX=0.057;entryY=1;entryDx=0;entryDy=0;entryPerimeter=0;" parent="tnWjY13QGrS4U4Cpanh3-1" target="tnWjY13QGrS4U4Cpanh3-2" edge="1">
          <mxGeometry width="50" height="50" relative="1" as="geometry">
            <mxPoint x="280" y="505" as="sourcePoint" />
            <mxPoint x="390" y="320" as="targetPoint" />
            <Array as="points">
              <mxPoint x="401" y="505" />
            </Array>
          </mxGeometry>
        </mxCell>
        <mxCell id="4UM01iXroUcWe9rMPNOq-9" value="" style="endArrow=classic;html=1;rounded=0;exitX=-0.003;exitY=0.622;exitDx=0;exitDy=0;exitPerimeter=0;" parent="tnWjY13QGrS4U4Cpanh3-1" source="tnWjY13QGrS4U4Cpanh3-2" edge="1">
          <mxGeometry width="50" height="50" relative="1" as="geometry">
            <mxPoint x="340" y="370" as="sourcePoint" />
            <mxPoint x="190" y="337" as="targetPoint" />
          </mxGeometry>
        </mxCell>
        <mxCell id="4UM01iXroUcWe9rMPNOq-10" value="" style="endArrow=none;html=1;rounded=0;entryX=0.185;entryY=0;entryDx=0;entryDy=0;entryPerimeter=0;" parent="tnWjY13QGrS4U4Cpanh3-1" target="tnWjY13QGrS4U4Cpanh3-2" edge="1">
          <mxGeometry width="50" height="50" relative="1" as="geometry">
            <mxPoint x="493" y="180" as="sourcePoint" />
            <mxPoint x="495" y="290" as="targetPoint" />
          </mxGeometry>
        </mxCell>
        <mxCell id="4UM01iXroUcWe9rMPNOq-12" value="" style="endArrow=none;html=1;rounded=0;entryX=0;entryY=1;entryDx=0;entryDy=0;" parent="tnWjY13QGrS4U4Cpanh3-1" target="FZFamsyPZ4Xh7DjJRzZ4-8" edge="1">
          <mxGeometry width="50" height="50" relative="1" as="geometry">
            <mxPoint x="620" y="180" as="sourcePoint" />
            <mxPoint x="620" y="290" as="targetPoint" />
          </mxGeometry>
        </mxCell>
        <mxCell id="4UM01iXroUcWe9rMPNOq-14" value="" style="endArrow=none;html=1;rounded=0;" parent="tnWjY13QGrS4U4Cpanh3-1" edge="1">
          <mxGeometry width="50" height="50" relative="1" as="geometry">
            <mxPoint x="740" y="300" as="sourcePoint" />
            <mxPoint x="740" y="180" as="targetPoint" />
            <Array as="points">
              <mxPoint x="740" y="200" />
            </Array>
          </mxGeometry>
        </mxCell>
        <mxCell id="4UM01iXroUcWe9rMPNOq-15" value="" style="endArrow=none;html=1;rounded=0;exitX=0;exitY=1;exitDx=0;exitDy=0;" parent="tnWjY13QGrS4U4Cpanh3-1" source="pVKYjR1IG8FrRiqu0qTl-14" edge="1">
          <mxGeometry width="50" height="50" relative="1" as="geometry">
            <mxPoint x="530" y="230" as="sourcePoint" />
            <mxPoint x="880" y="170" as="targetPoint" />
            <Array as="points" />
          </mxGeometry>
        </mxCell>
        <mxCell id="4UM01iXroUcWe9rMPNOq-24" value="" style="endArrow=none;html=1;rounded=0;exitX=0.5;exitY=0;exitDx=0;exitDy=0;" parent="tnWjY13QGrS4U4Cpanh3-1" source="8kBGaF1ih0h8uPIZNork-6" edge="1">
          <mxGeometry width="50" height="50" relative="1" as="geometry">
            <mxPoint x="430" y="470" as="sourcePoint" />
            <mxPoint x="429" y="360" as="targetPoint" />
          </mxGeometry>
        </mxCell>
        <mxCell id="4UM01iXroUcWe9rMPNOq-25" value="" style="endArrow=none;html=1;rounded=0;entryX=0.266;entryY=1.011;entryDx=0;entryDy=0;entryPerimeter=0;exitX=0.384;exitY=0;exitDx=0;exitDy=0;exitPerimeter=0;" parent="tnWjY13QGrS4U4Cpanh3-1" source="FZFamsyPZ4Xh7DjJRzZ4-9" target="tnWjY13QGrS4U4Cpanh3-2" edge="1">
          <mxGeometry width="50" height="50" relative="1" as="geometry">
            <mxPoint x="552" y="470" as="sourcePoint" />
            <mxPoint x="513.2" y="320" as="targetPoint" />
          </mxGeometry>
        </mxCell>
        <mxCell id="4UM01iXroUcWe9rMPNOq-27" value="" style="endArrow=none;html=1;rounded=0;exitX=0.5;exitY=0;exitDx=0;exitDy=0;" parent="tnWjY13QGrS4U4Cpanh3-1" source="pVKYjR1IG8FrRiqu0qTl-7" edge="1">
          <mxGeometry width="50" height="50" relative="1" as="geometry">
            <mxPoint x="679" y="470" as="sourcePoint" />
            <mxPoint x="683" y="360" as="targetPoint" />
          </mxGeometry>
        </mxCell>
        <mxCell id="4UM01iXroUcWe9rMPNOq-28" value="" style="endArrow=none;html=1;rounded=0;exitX=0.5;exitY=0;exitDx=0;exitDy=0;entryX=0.629;entryY=1.044;entryDx=0;entryDy=0;entryPerimeter=0;" parent="tnWjY13QGrS4U4Cpanh3-1" source="pVKYjR1IG8FrRiqu0qTl-11" target="tnWjY13QGrS4U4Cpanh3-2" edge="1">
          <mxGeometry width="50" height="50" relative="1" as="geometry">
            <mxPoint x="693" y="490" as="sourcePoint" />
            <mxPoint x="813" y="370" as="targetPoint" />
          </mxGeometry>
        </mxCell>
        <mxCell id="4UM01iXroUcWe9rMPNOq-29" value="" style="endArrow=none;html=1;rounded=0;entryX=0.5;entryY=0;entryDx=0;entryDy=0;" parent="tnWjY13QGrS4U4Cpanh3-1" target="pVKYjR1IG8FrRiqu0qTl-29" edge="1">
          <mxGeometry width="50" height="50" relative="1" as="geometry">
            <mxPoint x="945" y="360" as="sourcePoint" />
            <mxPoint x="770" y="490" as="targetPoint" />
          </mxGeometry>
        </mxCell>
        <mxCell id="4UM01iXroUcWe9rMPNOq-33" value="" style="endArrow=none;html=1;rounded=0;exitX=0.889;exitY=0;exitDx=0;exitDy=0;exitPerimeter=0;" parent="tnWjY13QGrS4U4Cpanh3-1" source="tnWjY13QGrS4U4Cpanh3-2" edge="1">
          <mxGeometry width="50" height="50" relative="1" as="geometry">
            <mxPoint x="1130" y="280" as="sourcePoint" />
            <mxPoint x="1000" y="120" as="targetPoint" />
            <Array as="points">
              <mxPoint x="1000" y="290" />
            </Array>
          </mxGeometry>
        </mxCell>
        <mxCell id="4UM01iXroUcWe9rMPNOq-34" value="" style="endArrow=none;html=1;rounded=0;" parent="tnWjY13QGrS4U4Cpanh3-1" edge="1">
          <mxGeometry width="50" height="50" relative="1" as="geometry">
            <mxPoint x="1000" y="120" as="sourcePoint" />
            <mxPoint x="1160" y="120" as="targetPoint" />
          </mxGeometry>
        </mxCell>
        <mxCell id="4UM01iXroUcWe9rMPNOq-35" value="" style="endArrow=none;html=1;rounded=0;exitX=1;exitY=0;exitDx=0;exitDy=0;" parent="tnWjY13QGrS4U4Cpanh3-1" source="pVKYjR1IG8FrRiqu0qTl-30" edge="1">
          <mxGeometry width="50" height="50" relative="1" as="geometry">
            <mxPoint x="1130" y="380" as="sourcePoint" />
            <mxPoint x="1020" y="520" as="targetPoint" />
          </mxGeometry>
        </mxCell>
        <mxCell id="4UM01iXroUcWe9rMPNOq-36" value="" style="endArrow=none;html=1;rounded=0;" parent="tnWjY13QGrS4U4Cpanh3-1" edge="1">
          <mxGeometry width="50" height="50" relative="1" as="geometry">
            <mxPoint x="1020" y="520" as="sourcePoint" />
            <mxPoint x="1120" y="520" as="targetPoint" />
          </mxGeometry>
        </mxCell>
        <mxCell id="4UM01iXroUcWe9rMPNOq-37" value="" style="endArrow=classic;html=1;rounded=0;" parent="tnWjY13QGrS4U4Cpanh3-1" edge="1">
          <mxGeometry width="50" height="50" relative="1" as="geometry">
            <mxPoint x="1270" y="498.7" as="sourcePoint" />
            <mxPoint x="1320" y="498.7" as="targetPoint" />
          </mxGeometry>
        </mxCell>
        <mxCell id="saunGWXsmh9KeAA_wu_j-0" value="1" style="ellipse;whiteSpace=wrap;html=1;aspect=fixed;" vertex="1" parent="tnWjY13QGrS4U4Cpanh3-1">
          <mxGeometry x="294" y="290" width="20" height="20" as="geometry" />
        </mxCell>
        <mxCell id="saunGWXsmh9KeAA_wu_j-1" value="2" style="ellipse;whiteSpace=wrap;html=1;aspect=fixed;" vertex="1" parent="tnWjY13QGrS4U4Cpanh3-1">
          <mxGeometry x="373" y="252" width="20" height="20" as="geometry" />
        </mxCell>
        <mxCell id="saunGWXsmh9KeAA_wu_j-2" value="3" style="ellipse;whiteSpace=wrap;html=1;aspect=fixed;" vertex="1" parent="tnWjY13QGrS4U4Cpanh3-1">
          <mxGeometry x="467" y="250" width="20" height="20" as="geometry" />
        </mxCell>
        <mxCell id="saunGWXsmh9KeAA_wu_j-3" value="4" style="ellipse;whiteSpace=wrap;html=1;aspect=fixed;" vertex="1" parent="tnWjY13QGrS4U4Cpanh3-1">
          <mxGeometry x="596" y="249" width="20" height="20" as="geometry" />
        </mxCell>
        <mxCell id="saunGWXsmh9KeAA_wu_j-4" value="5" style="ellipse;whiteSpace=wrap;html=1;aspect=fixed;" vertex="1" parent="tnWjY13QGrS4U4Cpanh3-1">
          <mxGeometry x="716" y="250" width="20" height="20" as="geometry" />
        </mxCell>
        <mxCell id="saunGWXsmh9KeAA_wu_j-5" value="6" style="ellipse;whiteSpace=wrap;html=1;aspect=fixed;" vertex="1" parent="tnWjY13QGrS4U4Cpanh3-1">
          <mxGeometry x="857" y="250" width="20" height="20" as="geometry" />
        </mxCell>
        <mxCell id="saunGWXsmh9KeAA_wu_j-6" value="7" style="ellipse;whiteSpace=wrap;html=1;aspect=fixed;" vertex="1" parent="tnWjY13QGrS4U4Cpanh3-1">
          <mxGeometry x="975" y="252" width="20" height="20" as="geometry" />
        </mxCell>
        <mxCell id="saunGWXsmh9KeAA_wu_j-7" value="8" style="ellipse;whiteSpace=wrap;html=1;aspect=fixed;" vertex="1" parent="tnWjY13QGrS4U4Cpanh3-1">
          <mxGeometry x="1095" y="305" width="20" height="20" as="geometry" />
        </mxCell>
        <mxCell id="saunGWXsmh9KeAA_wu_j-8" value="9" style="ellipse;whiteSpace=wrap;html=1;aspect=fixed;" vertex="1" parent="tnWjY13QGrS4U4Cpanh3-1">
          <mxGeometry x="1080" y="493" width="20" height="20" as="geometry" />
        </mxCell>
        <mxCell id="saunGWXsmh9KeAA_wu_j-9" value="10" style="ellipse;whiteSpace=wrap;html=1;aspect=fixed;" vertex="1" parent="tnWjY13QGrS4U4Cpanh3-1">
          <mxGeometry x="950" y="451" width="20" height="20" as="geometry" />
        </mxCell>
        <mxCell id="saunGWXsmh9KeAA_wu_j-10" value="11" style="ellipse;whiteSpace=wrap;html=1;aspect=fixed;" vertex="1" parent="tnWjY13QGrS4U4Cpanh3-1">
          <mxGeometry x="820" y="451" width="20" height="20" as="geometry" />
        </mxCell>
        <mxCell id="saunGWXsmh9KeAA_wu_j-11" value="12" style="ellipse;whiteSpace=wrap;html=1;aspect=fixed;" vertex="1" parent="tnWjY13QGrS4U4Cpanh3-1">
          <mxGeometry x="688" y="451" width="20" height="20" as="geometry" />
        </mxCell>
        <mxCell id="saunGWXsmh9KeAA_wu_j-12" value="13" style="ellipse;whiteSpace=wrap;html=1;aspect=fixed;" vertex="1" parent="tnWjY13QGrS4U4Cpanh3-1">
          <mxGeometry x="557" y="451" width="20" height="20" as="geometry" />
        </mxCell>
        <mxCell id="saunGWXsmh9KeAA_wu_j-13" value="14" style="ellipse;whiteSpace=wrap;html=1;aspect=fixed;" vertex="1" parent="tnWjY13QGrS4U4Cpanh3-1">
          <mxGeometry x="434" y="451" width="20" height="20" as="geometry" />
        </mxCell>
        <mxCell id="saunGWXsmh9KeAA_wu_j-14" value="14" style="ellipse;whiteSpace=wrap;html=1;aspect=fixed;" vertex="1" parent="tnWjY13QGrS4U4Cpanh3-1">
          <mxGeometry x="314" y="482.5" width="20" height="20" as="geometry" />
        </mxCell>
        <mxCell id="saunGWXsmh9KeAA_wu_j-18" value="" style="endArrow=none;html=1;rounded=0;entryX=0;entryY=0.5;entryDx=0;entryDy=0;" edge="1" parent="tnWjY13QGrS4U4Cpanh3-1" source="8kBGaF1ih0h8uPIZNork-0" target="FZFamsyPZ4Xh7DjJRzZ4-11">
          <mxGeometry width="50" height="50" relative="1" as="geometry">
            <mxPoint x="180" y="550" as="sourcePoint" />
            <mxPoint x="230" y="500" as="targetPoint" />
          </mxGeometry>
        </mxCell>
      </root>
    </mxGraphModel>
  </diagram>
</mxfile>
